<svg width="485" height="138" viewBox="0 0 485 138" fill="none" xmlns="http://www.w3.org/2000/svg">
<path d="M34.688 135.152C29.4827 135.152 24.832 134.171 20.736 132.208C16.64 130.16 13.44 127.387 11.136 123.888C8.832 120.304 7.68 116.293 7.68 111.856V92.912C7.68 88.3893 8.87467 84.2933 11.264 80.624C13.7387 76.9547 17.024 74.096 21.12 72.048C25.3013 69.9147 29.824 68.848 34.688 68.848C39.552 68.848 43.9893 69.872 48 71.92C52.096 73.968 55.296 76.784 57.6 80.368C59.9893 83.952 61.184 88.0053 61.184 92.528V100.72C61.184 102.085 60.672 103.237 59.648 104.176C58.624 105.115 57.3867 105.584 55.936 105.584H18.56V111.344C18.56 115.696 19.9253 119.195 22.656 121.84C25.472 124.485 29.4827 125.808 34.688 125.808C39.8933 125.808 43.8613 124.656 46.592 122.352C49.3227 120.048 50.688 116.933 50.688 113.008C53.248 112.837 55.3813 113.349 57.088 114.544C58.88 115.653 59.776 117.317 59.776 119.536C59.776 122.267 58.5813 124.827 56.192 127.216C53.888 129.605 50.816 131.525 46.976 132.976C43.136 134.427 39.04 135.152 34.688 135.152ZM50.816 96.88V92.528C50.816 88.2613 49.3227 84.8053 46.336 82.16C43.4347 79.4293 39.552 78.064 34.688 78.064C29.824 78.064 25.8987 79.4293 22.912 82.16C20.0107 84.8053 18.56 88.2613 18.56 92.528V96.88H50.816ZM94.52 135.152C88.2907 135.152 83.64 133.445 80.568 130.032C77.496 126.533 75.96 121.968 75.96 116.336V51.44C75.96 48.624 76.856 46.576 78.648 45.296C80.5253 43.9307 83.3413 43.248 87.096 43.248V115.952C87.096 119.28 87.7787 121.669 89.144 123.12C90.5093 124.571 92.7707 125.296 95.928 125.296C99.0853 125.296 101.987 124.528 104.632 122.992C105.741 124.272 106.296 125.765 106.296 127.472C106.296 129.52 105.229 131.312 103.096 132.848C100.963 134.384 98.104 135.152 94.52 135.152ZM142.188 135.152C136.983 135.152 132.332 134.171 128.236 132.208C124.14 130.16 120.94 127.387 118.636 123.888C116.332 120.304 115.18 116.293 115.18 111.856V92.912C115.18 88.3893 116.375 84.2933 118.764 80.624C121.239 76.9547 124.524 74.096 128.62 72.048C132.801 69.9147 137.324 68.848 142.188 68.848C147.052 68.848 151.489 69.872 155.5 71.92C159.596 73.968 162.796 76.784 165.1 80.368C167.489 83.952 168.684 88.0053 168.684 92.528V100.72C168.684 102.085 168.172 103.237 167.148 104.176C166.124 105.115 164.887 105.584 163.436 105.584H126.06V111.344C126.06 115.696 127.425 119.195 130.156 121.84C132.972 124.485 136.983 125.808 142.188 125.808C147.393 125.808 151.361 124.656 154.092 122.352C156.823 120.048 158.188 116.933 158.188 113.008C160.748 112.837 162.881 113.349 164.588 114.544C166.38 115.653 167.276 117.317 167.276 119.536C167.276 122.267 166.081 124.827 163.692 127.216C161.388 129.605 158.316 131.525 154.476 132.976C150.636 134.427 146.54 135.152 142.188 135.152ZM158.316 96.88V92.528C158.316 88.2613 156.823 84.8053 153.836 82.16C150.935 79.4293 147.052 78.064 142.188 78.064C137.324 78.064 133.399 79.4293 130.412 82.16C127.511 84.8053 126.06 88.2613 126.06 92.528V96.88H158.316ZM204.718 135.152C203.438 135.152 202.286 134.811 201.262 134.128C200.238 133.445 199.513 132.592 199.086 131.568L174.51 69.744C175.022 69.488 175.747 69.2747 176.686 69.104C177.625 68.9333 178.478 68.848 179.246 68.848C181.123 68.848 182.787 69.2747 184.238 70.128C185.689 70.9813 186.67 72.2187 187.182 73.84L204.078 119.792L202.286 124.912L202.926 125.168L222.126 73.84C222.638 72.2187 223.619 70.9813 225.07 70.128C226.521 69.2747 228.142 68.848 229.934 68.848C230.702 68.848 231.555 68.9333 232.494 69.104C233.433 69.2747 234.201 69.488 234.798 69.744L210.222 131.568C209.795 132.592 209.07 133.445 208.046 134.128C207.107 134.811 205.998 135.152 204.718 135.152Z" fill="#1E1E1E"/>
<path d="M265.208 135.152C257.869 135.152 251.939 133.189 247.416 129.264C242.979 125.339 240.76 120.176 240.76 113.776C240.76 107.291 243.107 102.085 247.8 98.16C252.493 94.1493 258.68 92.144 266.36 92.144C274.552 92.144 281.293 95.0453 286.584 100.848L287.096 100.336C286.157 99.312 285.091 98.2453 283.896 97.136V91.76C283.896 87.408 282.531 84.0373 279.8 81.648C277.069 79.2587 273.187 78.064 268.152 78.064C259.192 78.064 252.792 81.6053 248.952 88.688C247.587 88.0053 246.435 87.1093 245.496 86C244.643 84.8053 244.216 83.6107 244.216 82.416C244.216 80.112 245.368 77.936 247.672 75.888C249.976 73.7547 253.005 72.048 256.76 70.768C260.6 69.488 264.611 68.848 268.792 68.848C276.899 68.848 283.256 70.8533 287.864 74.864C292.557 78.8747 294.904 84.4213 294.904 91.504V126.576C294.904 129.563 294.051 131.739 292.344 133.104C290.637 134.469 287.949 135.152 284.28 135.152V129.136C286.072 127.259 287.053 126.149 287.224 125.808L286.712 125.296C281.165 131.867 273.997 135.152 265.208 135.152ZM267.128 126.32C272.419 126.32 276.557 125.211 279.544 122.992C282.616 120.773 284.152 117.701 284.152 113.776C284.152 109.851 282.659 106.736 279.672 104.432C276.685 102.128 272.589 100.976 267.384 100.976C262.52 100.976 258.68 102.128 255.864 104.432C253.133 106.651 251.768 109.765 251.768 113.776C251.768 117.787 253.091 120.901 255.736 123.12C258.467 125.253 262.264 126.32 267.128 126.32ZM331.932 135.152C325.873 135.152 321.351 133.445 318.364 130.032C315.377 126.533 313.884 121.968 313.884 116.336V78.96H301.98C301.98 76.0587 302.62 73.84 303.9 72.304C305.18 70.768 306.929 70 309.148 70H314.012V57.84C314.012 55.024 314.908 52.976 316.7 51.696C318.577 50.3307 321.351 49.648 325.02 49.648V70H342.044C342.044 75.9733 339.356 78.96 333.98 78.96H325.148V115.952C325.148 119.365 325.745 121.797 326.94 123.248C328.22 124.613 330.481 125.296 333.724 125.296C336.711 125.296 339.527 124.528 342.172 122.992C343.281 124.101 343.836 125.595 343.836 127.472C343.836 129.52 342.769 131.312 340.636 132.848C338.503 134.384 335.601 135.152 331.932 135.152ZM383.063 135.152C377.858 135.152 373.207 134.171 369.111 132.208C365.015 130.16 361.815 127.387 359.511 123.888C357.207 120.304 356.055 116.293 356.055 111.856V92.912C356.055 88.3893 357.25 84.2933 359.639 80.624C362.114 76.9547 365.399 74.096 369.495 72.048C373.676 69.9147 378.199 68.848 383.063 68.848C387.927 68.848 392.364 69.872 396.375 71.92C400.471 73.968 403.671 76.784 405.975 80.368C408.364 83.952 409.559 88.0053 409.559 92.528V100.72C409.559 102.085 409.047 103.237 408.023 104.176C406.999 105.115 405.762 105.584 404.311 105.584H366.935V111.344C366.935 115.696 368.3 119.195 371.031 121.84C373.847 124.485 377.858 125.808 383.063 125.808C388.268 125.808 392.236 124.656 394.967 122.352C397.698 120.048 399.063 116.933 399.063 113.008C401.623 112.837 403.756 113.349 405.463 114.544C407.255 115.653 408.151 117.317 408.151 119.536C408.151 122.267 406.956 124.827 404.567 127.216C402.263 129.605 399.191 131.525 395.351 132.976C391.511 134.427 387.415 135.152 383.063 135.152ZM399.191 96.88V92.528C399.191 88.2613 397.698 84.8053 394.711 82.16C391.81 79.4293 387.927 78.064 383.063 78.064C378.199 78.064 374.274 79.4293 371.287 82.16C368.386 84.8053 366.935 88.2613 366.935 92.528V96.88H399.191Z" fill="#0EA7DF"/>
</svg>
