<svg width="411" height="131" viewBox="0 0 411 131" fill="none" xmlns="http://www.w3.org/2000/svg">
<g clip-path="url(#clip0_28_2)">
<path d="M34.688 105.152C29.4827 105.152 24.832 104.171 20.736 102.208C16.64 100.16 13.44 97.3867 11.136 93.888C8.832 90.304 7.68 86.2933 7.68 81.856V62.912C7.68 58.3893 8.87467 54.2933 11.264 50.624C13.7387 46.9547 17.024 44.096 21.12 42.048C25.3013 39.9147 29.824 38.848 34.688 38.848C39.552 38.848 43.9893 39.872 48 41.92C52.096 43.968 55.296 46.784 57.6 50.368C59.9893 53.952 61.184 58.0053 61.184 62.528V70.72C61.184 72.0853 60.672 73.2373 59.648 74.176C58.624 75.1147 57.3867 75.584 55.936 75.584H18.56V81.344C18.56 85.696 19.9253 89.1947 22.656 91.84C25.472 94.4853 29.4827 95.808 34.688 95.808C39.8933 95.808 43.8613 94.656 46.592 92.352C49.3227 90.048 50.688 86.9333 50.688 83.008C53.248 82.8373 55.3813 83.3493 57.088 84.544C58.88 85.6533 59.776 87.3173 59.776 89.536C59.776 92.2667 58.5813 94.8267 56.192 97.216C53.888 99.6053 50.816 101.525 46.976 102.976C43.136 104.427 39.04 105.152 34.688 105.152ZM50.816 66.88V62.528C50.816 58.2613 49.3227 54.8053 46.336 52.16C43.4347 49.4293 39.552 48.064 34.688 48.064C29.824 48.064 25.8987 49.4293 22.912 52.16C20.0107 54.8053 18.56 58.2613 18.56 62.528V66.88H50.816ZM94.52 105.152C88.2907 105.152 83.64 103.445 80.568 100.032C77.496 96.5333 75.96 91.968 75.96 86.336V21.44C75.96 18.624 76.856 16.576 78.648 15.296C80.5253 13.9307 83.3413 13.248 87.096 13.248V85.952C87.096 89.28 87.7787 91.6693 89.144 93.12C90.5093 94.5707 92.7707 95.296 95.928 95.296C99.0853 95.296 101.987 94.528 104.632 92.992C105.741 94.272 106.296 95.7653 106.296 97.472C106.296 99.52 105.229 101.312 103.096 102.848C100.963 104.384 98.104 105.152 94.52 105.152ZM142.188 105.152C136.983 105.152 132.332 104.171 128.236 102.208C124.14 100.16 120.94 97.3867 118.636 93.888C116.332 90.304 115.18 86.2933 115.18 81.856V62.912C115.18 58.3893 116.375 54.2933 118.764 50.624C121.239 46.9547 124.524 44.096 128.62 42.048C132.801 39.9147 137.324 38.848 142.188 38.848C147.052 38.848 151.489 39.872 155.5 41.92C159.596 43.968 162.796 46.784 165.1 50.368C167.489 53.952 168.684 58.0053 168.684 62.528V70.72C168.684 72.0853 168.172 73.2373 167.148 74.176C166.124 75.1147 164.887 75.584 163.436 75.584H126.06V81.344C126.06 85.696 127.425 89.1947 130.156 91.84C132.972 94.4853 136.983 95.808 142.188 95.808C147.393 95.808 151.361 94.656 154.092 92.352C156.823 90.048 158.188 86.9333 158.188 83.008C160.748 82.8373 162.881 83.3493 164.588 84.544C166.38 85.6533 167.276 87.3173 167.276 89.536C167.276 92.2667 166.081 94.8267 163.692 97.216C161.388 99.6053 158.316 101.525 154.476 102.976C150.636 104.427 146.54 105.152 142.188 105.152ZM158.316 66.88V62.528C158.316 58.2613 156.823 54.8053 153.836 52.16C150.935 49.4293 147.052 48.064 142.188 48.064C137.324 48.064 133.399 49.4293 130.412 52.16C127.511 54.8053 126.06 58.2613 126.06 62.528V66.88H158.316ZM204.718 105.152C203.438 105.152 202.286 104.811 201.262 104.128C200.238 103.445 199.513 102.592 199.086 101.568L174.51 39.744C175.022 39.488 175.747 39.2747 176.686 39.104C177.625 38.9333 178.478 38.848 179.246 38.848C181.123 38.848 182.787 39.2747 184.238 40.128C185.689 40.9813 186.67 42.2187 187.182 43.84L204.078 89.792L202.286 94.912L202.926 95.168L222.126 43.84C222.638 42.2187 223.619 40.9813 225.07 40.128C226.521 39.2747 228.142 38.848 229.934 38.848C230.702 38.848 231.555 38.9333 232.494 39.104C233.433 39.2747 234.201 39.488 234.798 39.744L210.222 101.568C209.795 102.592 209.07 103.445 208.046 104.128C207.107 104.811 205.998 105.152 204.718 105.152Z" fill="#1E1E1E"/>
<path d="M264.732 105.152C257.393 105.152 251.462 103.189 246.94 99.264C242.502 95.3387 240.284 90.176 240.284 83.776C240.284 77.2907 242.63 72.0853 247.324 68.16C252.017 64.1493 258.204 62.144 265.884 62.144C274.076 62.144 280.817 65.0453 286.108 70.848L286.62 70.336C285.681 69.312 284.614 68.2453 283.42 67.136V61.76C283.42 57.408 282.054 54.0373 279.324 51.648C276.593 49.2587 272.71 48.064 267.676 48.064C258.716 48.064 252.316 51.6053 248.476 58.688C247.11 58.0053 245.958 57.1093 245.02 56C244.166 54.8053 243.74 53.6107 243.74 52.416C243.74 50.112 244.892 47.936 247.196 45.888C249.5 43.7547 252.529 42.048 256.284 40.768C260.124 39.488 264.134 38.848 268.316 38.848C276.422 38.848 282.78 40.8533 287.388 44.864C292.081 48.8747 294.428 54.4213 294.428 61.504V96.576C294.428 99.5627 293.574 101.739 291.868 103.104C290.161 104.469 287.473 105.152 283.804 105.152V99.136C285.596 97.2587 286.577 96.1493 286.748 95.808L286.236 95.296C280.689 101.867 273.521 105.152 264.732 105.152ZM266.652 96.32C271.942 96.32 276.081 95.2107 279.068 92.992C282.14 90.7733 283.676 87.7013 283.676 83.776C283.676 79.8507 282.182 76.736 279.196 74.432C276.209 72.128 272.113 70.976 266.908 70.976C262.044 70.976 258.204 72.128 255.388 74.432C252.657 76.6507 251.292 79.7653 251.292 83.776C251.292 87.7867 252.614 90.9013 255.26 93.12C257.99 95.2533 261.788 96.32 266.652 96.32ZM331.456 105.152C325.397 105.152 320.874 103.445 317.888 100.032C314.901 96.5333 313.408 91.968 313.408 86.336V48.96H301.504C301.504 46.0587 302.144 43.84 303.424 42.304C304.704 40.768 306.453 40 308.672 40H313.536V27.84C313.536 25.024 314.432 22.976 316.224 21.696C318.101 20.3307 320.874 19.648 324.544 19.648V40H341.568C341.568 45.9733 338.88 48.96 333.504 48.96H324.672V85.952C324.672 89.3653 325.269 91.7973 326.464 93.248C327.744 94.6133 330.005 95.296 333.248 95.296C336.234 95.296 339.05 94.528 341.696 92.992C342.805 94.1013 343.36 95.5947 343.36 97.472C343.36 99.52 342.293 101.312 340.16 102.848C338.026 104.384 335.125 105.152 331.456 105.152ZM382.587 105.152C377.381 105.152 372.731 104.171 368.635 102.208C364.539 100.16 361.339 97.3867 359.035 93.888C356.731 90.304 355.579 86.2933 355.579 81.856V62.912C355.579 58.3893 356.773 54.2933 359.163 50.624C361.637 46.9547 364.923 44.096 369.019 42.048C373.2 39.9147 377.723 38.848 382.587 38.848C387.451 38.848 391.888 39.872 395.899 41.92C399.995 43.968 403.195 46.784 405.499 50.368C407.888 53.952 409.083 58.0053 409.083 62.528V70.72C409.083 72.0853 408.571 73.2373 407.547 74.176C406.523 75.1147 405.285 75.584 403.835 75.584H366.459V81.344C366.459 85.696 367.824 89.1947 370.555 91.84C373.371 94.4853 377.381 95.808 382.587 95.808C387.792 95.808 391.76 94.656 394.491 92.352C397.221 90.048 398.587 86.9333 398.587 83.008C401.147 82.8373 403.28 83.3493 404.987 84.544C406.779 85.6533 407.675 87.3173 407.675 89.536C407.675 92.2667 406.48 94.8267 404.091 97.216C401.787 99.6053 398.715 101.525 394.875 102.976C391.035 104.427 386.939 105.152 382.587 105.152ZM398.715 66.88V62.528C398.715 58.2613 397.221 54.8053 394.235 52.16C391.333 49.4293 387.451 48.064 382.587 48.064C377.723 48.064 373.797 49.4293 370.811 52.16C367.909 54.8053 366.459 58.2613 366.459 62.528V66.88H398.715Z" fill="#0EA7DF"/>
</g>
<defs>
<clipPath id="clip0_28_2">
<rect width="411" height="131" rx="6" fill="white"/>
</clipPath>
</defs>
</svg>
