<svg width="236" height="92" viewBox="0 0 236 92" fill="none" xmlns="http://www.w3.org/2000/svg">
<mask id="path-1-outside-1_16_43" maskUnits="userSpaceOnUse" x="4" y="20" width="204" height="49" fill="black">
<rect fill="white" x="4" y="20" width="204" height="49"/>
<path d="M19.344 67.576C16.7413 67.576 14.416 67.0853 12.368 66.104C10.32 65.08 8.72 63.6933 7.568 61.944C6.416 60.152 5.84 58.1467 5.84 55.928V46.456C5.84 44.1947 6.43733 42.1467 7.632 40.312C8.86933 38.4773 10.512 37.048 12.56 36.024C14.6507 34.9573 16.912 34.424 19.344 34.424C21.776 34.424 23.9947 34.936 26 35.96C28.048 36.984 29.648 38.392 30.8 40.184C31.9947 41.976 32.592 44.0027 32.592 46.264V50.36C32.592 51.0427 32.336 51.6187 31.824 52.088C31.312 52.5573 30.6933 52.792 29.968 52.792H11.28V55.672C11.28 57.848 11.9627 59.5973 13.328 60.92C14.736 62.2427 16.7413 62.904 19.344 62.904C21.9467 62.904 23.9307 62.328 25.296 61.176C26.6613 60.024 27.344 58.4667 27.344 56.504C28.624 56.4187 29.6907 56.6747 30.544 57.272C31.44 57.8267 31.888 58.6587 31.888 59.768C31.888 61.1333 31.2907 62.4133 30.096 63.608C28.944 64.8027 27.408 65.7627 25.488 66.488C23.568 67.2133 21.52 67.576 19.344 67.576ZM27.408 48.44V46.264C27.408 44.1307 26.6613 42.4027 25.168 41.08C23.7173 39.7147 21.776 39.032 19.344 39.032C16.912 39.032 14.9493 39.7147 13.456 41.08C12.0053 42.4027 11.28 44.1307 11.28 46.264V48.44H27.408ZM49.26 67.576C46.1453 67.576 43.82 66.7227 42.284 65.016C40.748 63.2667 39.98 60.984 39.98 58.168V25.72C39.98 24.312 40.428 23.288 41.324 22.648C42.2627 21.9653 43.6707 21.624 45.548 21.624V57.976C45.548 59.64 45.8893 60.8347 46.572 61.56C47.2547 62.2853 48.3853 62.648 49.964 62.648C51.5427 62.648 52.9933 62.264 54.316 61.496C54.8707 62.136 55.148 62.8827 55.148 63.736C55.148 64.76 54.6147 65.656 53.548 66.424C52.4813 67.192 51.052 67.576 49.26 67.576ZM73.094 67.576C70.4913 67.576 68.166 67.0853 66.118 66.104C64.07 65.08 62.47 63.6933 61.318 61.944C60.166 60.152 59.59 58.1467 59.59 55.928V46.456C59.59 44.1947 60.1873 42.1467 61.382 40.312C62.6193 38.4773 64.262 37.048 66.31 36.024C68.4007 34.9573 70.662 34.424 73.094 34.424C75.526 34.424 77.7447 34.936 79.75 35.96C81.798 36.984 83.398 38.392 84.55 40.184C85.7447 41.976 86.342 44.0027 86.342 46.264V50.36C86.342 51.0427 86.086 51.6187 85.574 52.088C85.062 52.5573 84.4433 52.792 83.718 52.792H65.03V55.672C65.03 57.848 65.7127 59.5973 67.078 60.92C68.486 62.2427 70.4913 62.904 73.094 62.904C75.6967 62.904 77.6807 62.328 79.046 61.176C80.4113 60.024 81.094 58.4667 81.094 56.504C82.374 56.4187 83.4407 56.6747 84.294 57.272C85.19 57.8267 85.638 58.6587 85.638 59.768C85.638 61.1333 85.0407 62.4133 83.846 63.608C82.694 64.8027 81.158 65.7627 79.238 66.488C77.318 67.2133 75.27 67.576 73.094 67.576ZM81.158 48.44V46.264C81.158 44.1307 80.4113 42.4027 78.918 41.08C77.4673 39.7147 75.526 39.032 73.094 39.032C70.662 39.032 68.6993 39.7147 67.206 41.08C65.7553 42.4027 65.03 44.1307 65.03 46.264V48.44H81.158ZM104.359 67.576C103.719 67.576 103.143 67.4053 102.631 67.064C102.119 66.7227 101.756 66.296 101.543 65.784L89.255 34.872C89.511 34.744 89.8737 34.6373 90.343 34.552C90.8123 34.4667 91.239 34.424 91.623 34.424C92.5617 34.424 93.3937 34.6373 94.119 35.064C94.8443 35.4907 95.335 36.1093 95.591 36.92L104.039 59.896L103.143 62.456L103.463 62.584L113.063 36.92C113.319 36.1093 113.81 35.4907 114.535 35.064C115.26 34.6373 116.071 34.424 116.967 34.424C117.351 34.424 117.778 34.4667 118.247 34.552C118.716 34.6373 119.1 34.744 119.399 34.872L107.111 65.784C106.898 66.296 106.535 66.7227 106.023 67.064C105.554 67.4053 104.999 67.576 104.359 67.576ZM133.854 67.576C130.185 67.576 127.219 66.5947 124.958 64.632C122.739 62.6693 121.63 60.088 121.63 56.888C121.63 53.6453 122.803 51.0427 125.15 49.08C127.497 47.0747 130.59 46.072 134.43 46.072C138.526 46.072 141.897 47.5227 144.542 50.424L144.798 50.168C144.329 49.656 143.795 49.1227 143.198 48.568V45.88C143.198 43.704 142.515 42.0187 141.15 40.824C139.785 39.6293 137.843 39.032 135.326 39.032C130.846 39.032 127.646 40.8027 125.726 44.344C125.043 44.0027 124.467 43.5547 123.998 43C123.571 42.4027 123.358 41.8053 123.358 41.208C123.358 40.056 123.934 38.968 125.086 37.944C126.238 36.8773 127.753 36.024 129.63 35.384C131.55 34.744 133.555 34.424 135.646 34.424C139.699 34.424 142.878 35.4267 145.182 37.432C147.529 39.4373 148.702 42.2107 148.702 45.752V63.288C148.702 64.7813 148.275 65.8693 147.422 66.552C146.569 67.2347 145.225 67.576 143.39 67.576V64.568C144.286 63.6293 144.777 63.0747 144.862 62.904L144.606 62.648C141.833 65.9333 138.249 67.576 133.854 67.576ZM134.814 63.16C137.459 63.16 139.529 62.6053 141.022 61.496C142.558 60.3867 143.326 58.8507 143.326 56.888C143.326 54.9253 142.579 53.368 141.086 52.216C139.593 51.064 137.545 50.488 134.942 50.488C132.51 50.488 130.59 51.064 129.182 52.216C127.817 53.3253 127.134 54.8827 127.134 56.888C127.134 58.8933 127.795 60.4507 129.118 61.56C130.483 62.6267 132.382 63.16 134.814 63.16ZM167.216 67.576C164.187 67.576 161.925 66.7227 160.432 65.016C158.939 63.2667 158.192 60.984 158.192 58.168V39.48H152.24C152.24 38.0293 152.56 36.92 153.2 36.152C153.84 35.384 154.715 35 155.824 35H158.256V28.92C158.256 27.512 158.704 26.488 159.6 25.848C160.539 25.1653 161.925 24.824 163.76 24.824V35H172.272C172.272 37.9867 170.928 39.48 168.24 39.48H163.824V57.976C163.824 59.6827 164.123 60.8987 164.72 61.624C165.36 62.3067 166.491 62.648 168.112 62.648C169.605 62.648 171.013 62.264 172.336 61.496C172.891 62.0507 173.168 62.7973 173.168 63.736C173.168 64.76 172.635 65.656 171.568 66.424C170.501 67.192 169.051 67.576 167.216 67.576ZM192.782 67.576C190.179 67.576 187.854 67.0853 185.806 66.104C183.758 65.08 182.158 63.6933 181.006 61.944C179.854 60.152 179.278 58.1467 179.278 55.928V46.456C179.278 44.1947 179.875 42.1467 181.07 40.312C182.307 38.4773 183.95 37.048 185.998 36.024C188.088 34.9573 190.35 34.424 192.782 34.424C195.214 34.424 197.432 34.936 199.438 35.96C201.486 36.984 203.086 38.392 204.238 40.184C205.432 41.976 206.03 44.0027 206.03 46.264V50.36C206.03 51.0427 205.774 51.6187 205.262 52.088C204.75 52.5573 204.131 52.792 203.406 52.792H184.718V55.672C184.718 57.848 185.4 59.5973 186.766 60.92C188.174 62.2427 190.179 62.904 192.782 62.904C195.384 62.904 197.368 62.328 198.734 61.176C200.099 60.024 200.782 58.4667 200.782 56.504C202.062 56.4187 203.128 56.6747 203.982 57.272C204.878 57.8267 205.326 58.6587 205.326 59.768C205.326 61.1333 204.728 62.4133 203.534 63.608C202.382 64.8027 200.846 65.7627 198.926 66.488C197.006 67.2133 194.958 67.576 192.782 67.576ZM200.846 48.44V46.264C200.846 44.1307 200.099 42.4027 198.606 41.08C197.155 39.7147 195.214 39.032 192.782 39.032C190.35 39.032 188.387 39.7147 186.894 41.08C185.443 42.4027 184.718 44.1307 184.718 46.264V48.44H200.846Z"/>
</mask>
<path d="M19.344 67.576C16.7413 67.576 14.416 67.0853 12.368 66.104C10.32 65.08 8.72 63.6933 7.568 61.944C6.416 60.152 5.84 58.1467 5.84 55.928V46.456C5.84 44.1947 6.43733 42.1467 7.632 40.312C8.86933 38.4773 10.512 37.048 12.56 36.024C14.6507 34.9573 16.912 34.424 19.344 34.424C21.776 34.424 23.9947 34.936 26 35.96C28.048 36.984 29.648 38.392 30.8 40.184C31.9947 41.976 32.592 44.0027 32.592 46.264V50.36C32.592 51.0427 32.336 51.6187 31.824 52.088C31.312 52.5573 30.6933 52.792 29.968 52.792H11.28V55.672C11.28 57.848 11.9627 59.5973 13.328 60.92C14.736 62.2427 16.7413 62.904 19.344 62.904C21.9467 62.904 23.9307 62.328 25.296 61.176C26.6613 60.024 27.344 58.4667 27.344 56.504C28.624 56.4187 29.6907 56.6747 30.544 57.272C31.44 57.8267 31.888 58.6587 31.888 59.768C31.888 61.1333 31.2907 62.4133 30.096 63.608C28.944 64.8027 27.408 65.7627 25.488 66.488C23.568 67.2133 21.52 67.576 19.344 67.576ZM27.408 48.44V46.264C27.408 44.1307 26.6613 42.4027 25.168 41.08C23.7173 39.7147 21.776 39.032 19.344 39.032C16.912 39.032 14.9493 39.7147 13.456 41.08C12.0053 42.4027 11.28 44.1307 11.28 46.264V48.44H27.408ZM49.26 67.576C46.1453 67.576 43.82 66.7227 42.284 65.016C40.748 63.2667 39.98 60.984 39.98 58.168V25.72C39.98 24.312 40.428 23.288 41.324 22.648C42.2627 21.9653 43.6707 21.624 45.548 21.624V57.976C45.548 59.64 45.8893 60.8347 46.572 61.56C47.2547 62.2853 48.3853 62.648 49.964 62.648C51.5427 62.648 52.9933 62.264 54.316 61.496C54.8707 62.136 55.148 62.8827 55.148 63.736C55.148 64.76 54.6147 65.656 53.548 66.424C52.4813 67.192 51.052 67.576 49.26 67.576ZM73.094 67.576C70.4913 67.576 68.166 67.0853 66.118 66.104C64.07 65.08 62.47 63.6933 61.318 61.944C60.166 60.152 59.59 58.1467 59.59 55.928V46.456C59.59 44.1947 60.1873 42.1467 61.382 40.312C62.6193 38.4773 64.262 37.048 66.31 36.024C68.4007 34.9573 70.662 34.424 73.094 34.424C75.526 34.424 77.7447 34.936 79.75 35.96C81.798 36.984 83.398 38.392 84.55 40.184C85.7447 41.976 86.342 44.0027 86.342 46.264V50.36C86.342 51.0427 86.086 51.6187 85.574 52.088C85.062 52.5573 84.4433 52.792 83.718 52.792H65.03V55.672C65.03 57.848 65.7127 59.5973 67.078 60.92C68.486 62.2427 70.4913 62.904 73.094 62.904C75.6967 62.904 77.6807 62.328 79.046 61.176C80.4113 60.024 81.094 58.4667 81.094 56.504C82.374 56.4187 83.4407 56.6747 84.294 57.272C85.19 57.8267 85.638 58.6587 85.638 59.768C85.638 61.1333 85.0407 62.4133 83.846 63.608C82.694 64.8027 81.158 65.7627 79.238 66.488C77.318 67.2133 75.27 67.576 73.094 67.576ZM81.158 48.44V46.264C81.158 44.1307 80.4113 42.4027 78.918 41.08C77.4673 39.7147 75.526 39.032 73.094 39.032C70.662 39.032 68.6993 39.7147 67.206 41.08C65.7553 42.4027 65.03 44.1307 65.03 46.264V48.44H81.158ZM104.359 67.576C103.719 67.576 103.143 67.4053 102.631 67.064C102.119 66.7227 101.756 66.296 101.543 65.784L89.255 34.872C89.511 34.744 89.8737 34.6373 90.343 34.552C90.8123 34.4667 91.239 34.424 91.623 34.424C92.5617 34.424 93.3937 34.6373 94.119 35.064C94.8443 35.4907 95.335 36.1093 95.591 36.92L104.039 59.896L103.143 62.456L103.463 62.584L113.063 36.92C113.319 36.1093 113.81 35.4907 114.535 35.064C115.26 34.6373 116.071 34.424 116.967 34.424C117.351 34.424 117.778 34.4667 118.247 34.552C118.716 34.6373 119.1 34.744 119.399 34.872L107.111 65.784C106.898 66.296 106.535 66.7227 106.023 67.064C105.554 67.4053 104.999 67.576 104.359 67.576ZM133.854 67.576C130.185 67.576 127.219 66.5947 124.958 64.632C122.739 62.6693 121.63 60.088 121.63 56.888C121.63 53.6453 122.803 51.0427 125.15 49.08C127.497 47.0747 130.59 46.072 134.43 46.072C138.526 46.072 141.897 47.5227 144.542 50.424L144.798 50.168C144.329 49.656 143.795 49.1227 143.198 48.568V45.88C143.198 43.704 142.515 42.0187 141.15 40.824C139.785 39.6293 137.843 39.032 135.326 39.032C130.846 39.032 127.646 40.8027 125.726 44.344C125.043 44.0027 124.467 43.5547 123.998 43C123.571 42.4027 123.358 41.8053 123.358 41.208C123.358 40.056 123.934 38.968 125.086 37.944C126.238 36.8773 127.753 36.024 129.63 35.384C131.55 34.744 133.555 34.424 135.646 34.424C139.699 34.424 142.878 35.4267 145.182 37.432C147.529 39.4373 148.702 42.2107 148.702 45.752V63.288C148.702 64.7813 148.275 65.8693 147.422 66.552C146.569 67.2347 145.225 67.576 143.39 67.576V64.568C144.286 63.6293 144.777 63.0747 144.862 62.904L144.606 62.648C141.833 65.9333 138.249 67.576 133.854 67.576ZM134.814 63.16C137.459 63.16 139.529 62.6053 141.022 61.496C142.558 60.3867 143.326 58.8507 143.326 56.888C143.326 54.9253 142.579 53.368 141.086 52.216C139.593 51.064 137.545 50.488 134.942 50.488C132.51 50.488 130.59 51.064 129.182 52.216C127.817 53.3253 127.134 54.8827 127.134 56.888C127.134 58.8933 127.795 60.4507 129.118 61.56C130.483 62.6267 132.382 63.16 134.814 63.16ZM167.216 67.576C164.187 67.576 161.925 66.7227 160.432 65.016C158.939 63.2667 158.192 60.984 158.192 58.168V39.48H152.24C152.24 38.0293 152.56 36.92 153.2 36.152C153.84 35.384 154.715 35 155.824 35H158.256V28.92C158.256 27.512 158.704 26.488 159.6 25.848C160.539 25.1653 161.925 24.824 163.76 24.824V35H172.272C172.272 37.9867 170.928 39.48 168.24 39.48H163.824V57.976C163.824 59.6827 164.123 60.8987 164.72 61.624C165.36 62.3067 166.491 62.648 168.112 62.648C169.605 62.648 171.013 62.264 172.336 61.496C172.891 62.0507 173.168 62.7973 173.168 63.736C173.168 64.76 172.635 65.656 171.568 66.424C170.501 67.192 169.051 67.576 167.216 67.576ZM192.782 67.576C190.179 67.576 187.854 67.0853 185.806 66.104C183.758 65.08 182.158 63.6933 181.006 61.944C179.854 60.152 179.278 58.1467 179.278 55.928V46.456C179.278 44.1947 179.875 42.1467 181.07 40.312C182.307 38.4773 183.95 37.048 185.998 36.024C188.088 34.9573 190.35 34.424 192.782 34.424C195.214 34.424 197.432 34.936 199.438 35.96C201.486 36.984 203.086 38.392 204.238 40.184C205.432 41.976 206.03 44.0027 206.03 46.264V50.36C206.03 51.0427 205.774 51.6187 205.262 52.088C204.75 52.5573 204.131 52.792 203.406 52.792H184.718V55.672C184.718 57.848 185.4 59.5973 186.766 60.92C188.174 62.2427 190.179 62.904 192.782 62.904C195.384 62.904 197.368 62.328 198.734 61.176C200.099 60.024 200.782 58.4667 200.782 56.504C202.062 56.4187 203.128 56.6747 203.982 57.272C204.878 57.8267 205.326 58.6587 205.326 59.768C205.326 61.1333 204.728 62.4133 203.534 63.608C202.382 64.8027 200.846 65.7627 198.926 66.488C197.006 67.2133 194.958 67.576 192.782 67.576ZM200.846 48.44V46.264C200.846 44.1307 200.099 42.4027 198.606 41.08C197.155 39.7147 195.214 39.032 192.782 39.032C190.35 39.032 188.387 39.7147 186.894 41.08C185.443 42.4027 184.718 44.1307 184.718 46.264V48.44H200.846Z" fill="white"/>
<path d="M12.368 66.104L11.9208 66.9984L11.9283 67.0022L11.9359 67.0058L12.368 66.104ZM7.568 61.944L6.72677 62.4848L6.73283 62.494L7.568 61.944ZM7.632 40.312L6.80293 39.7529L6.79841 39.7596L6.794 39.7663L7.632 40.312ZM12.56 36.024L13.0072 36.9185L13.0145 36.9148L12.56 36.024ZM26 35.96L25.5452 36.8506L25.5528 36.8544L26 35.96ZM30.8 40.184L29.9588 40.7248L29.9633 40.7318L29.968 40.7387L30.8 40.184ZM31.824 52.088L32.4997 52.8252L32.4997 52.8252L31.824 52.088ZM11.28 52.792V51.792H10.28V52.792H11.28ZM13.328 60.92L12.6322 61.6382L12.6377 61.6436L12.6433 61.6488L13.328 60.92ZM27.344 56.504L27.2775 55.5062L26.344 55.5684V56.504H27.344ZM30.544 57.272L29.9705 58.0912L29.9937 58.1074L30.0176 58.1223L30.544 57.272ZM30.096 63.608L29.3889 62.9009L29.3825 62.9073L29.3762 62.9139L30.096 63.608ZM25.488 66.488L25.1346 65.5525L25.1346 65.5525L25.488 66.488ZM27.408 48.44V49.44H28.408V48.44H27.408ZM25.168 41.08L24.4826 41.8082L24.4936 41.8186L24.505 41.8286L25.168 41.08ZM13.456 41.08L14.1298 41.819L14.1308 41.818L13.456 41.08ZM11.28 48.44H10.28V49.44H11.28V48.44ZM19.344 67.576V66.576C16.869 66.576 14.6948 66.1101 12.8001 65.2022L12.368 66.104L11.9359 67.0058C14.1372 68.0606 16.6136 68.576 19.344 68.576V67.576ZM12.368 66.104L12.8152 65.2096C10.9095 64.2567 9.44953 62.9829 8.40317 61.394L7.568 61.944L6.73283 62.494C7.99047 64.4037 9.73051 65.9033 11.9208 66.9984L12.368 66.104ZM7.568 61.944L8.40918 61.4032C7.36531 59.7794 6.84 57.9633 6.84 55.928H5.84H4.84C4.84 58.33 5.46669 60.5246 6.72682 62.4848L7.568 61.944ZM5.84 55.928H6.84V46.456H5.84H4.84V55.928H5.84ZM5.84 46.456H6.84C6.84 44.3817 7.38467 42.5244 8.47 40.8577L7.632 40.312L6.794 39.7663C5.49 41.7689 4.84 44.0077 4.84 46.456H5.84ZM7.632 40.312L8.46107 40.8711C9.59869 39.1843 11.1077 37.8682 13.0072 36.9184L12.56 36.024L12.1128 35.1296C9.91633 36.2278 8.13998 37.7703 6.80293 39.7529L7.632 40.312ZM12.56 36.024L13.0145 36.9148C14.9592 35.9225 17.0641 35.424 19.344 35.424V34.424V33.424C16.7599 33.424 14.3421 33.9921 12.1055 35.1332L12.56 36.024ZM19.344 34.424V35.424C21.6308 35.424 23.6918 35.9042 25.5452 36.8506L26 35.96L26.4548 35.0694C24.2975 33.9678 21.9212 33.424 19.344 33.424V34.424ZM26 35.96L25.5528 36.8544C27.4525 37.8043 28.9113 39.0952 29.9588 40.7248L30.8 40.184L31.6412 39.6432C30.3847 37.6888 28.6435 36.1637 26.4472 35.0656L26 35.96ZM30.8 40.184L29.968 40.7387C31.0475 42.358 31.592 44.1897 31.592 46.264H32.592H33.592C33.592 43.8156 32.9419 41.594 31.6321 39.6293L30.8 40.184ZM32.592 46.264H31.592V50.36H32.592H33.592V46.264H32.592ZM32.592 50.36H31.592C31.592 50.7568 31.4577 51.0672 31.1483 51.3508L31.824 52.088L32.4997 52.8252C33.2143 52.1702 33.592 51.3285 33.592 50.36H32.592ZM31.824 52.088L31.1483 51.3508C30.8295 51.6431 30.4553 51.792 29.968 51.792V52.792V53.792C30.9313 53.792 31.7945 53.4716 32.4997 52.8252L31.824 52.088ZM29.968 52.792V51.792H11.28V52.792V53.792H29.968V52.792ZM11.28 52.792H10.28V55.672H11.28H12.28V52.792H11.28ZM11.28 55.672H10.28C10.28 58.076 11.0437 60.0994 12.6322 61.6382L13.328 60.92L14.0238 60.2018C12.8816 59.0953 12.28 57.62 12.28 55.672H11.28ZM13.328 60.92L12.6433 61.6488C14.2934 63.1989 16.577 63.904 19.344 63.904V62.904V61.904C16.9057 61.904 15.1786 61.2864 14.0127 60.1912L13.328 60.92ZM19.344 62.904V63.904C22.0775 63.904 24.3284 63.3008 25.9409 61.9403L25.296 61.176L24.6511 60.4117C23.5329 61.3552 21.8158 61.904 19.344 61.904V62.904ZM25.296 61.176L25.9409 61.9403C27.5554 60.5781 28.344 58.7284 28.344 56.504H27.344H26.344C26.344 58.2049 25.7673 59.4699 24.6511 60.4117L25.296 61.176ZM27.344 56.504L27.4105 57.5018C28.5173 57.428 29.3441 57.6527 29.9705 58.0912L30.544 57.272L31.1175 56.4528C30.0373 55.6966 28.7307 55.4093 27.2775 55.5062L27.344 56.504ZM30.544 57.272L30.0176 58.1223C30.6009 58.4833 30.888 58.9829 30.888 59.768H31.888H32.888C32.888 58.3345 32.2791 57.17 31.0704 56.4217L30.544 57.272ZM31.888 59.768H30.888C30.888 60.8081 30.4432 61.8466 29.3889 62.9009L30.096 63.608L30.8031 64.3151C32.1381 62.9801 32.888 61.4586 32.888 59.768H31.888ZM30.096 63.608L29.3762 62.9139C28.3483 63.9798 26.9481 64.8674 25.1346 65.5525L25.488 66.488L25.8414 67.4235C27.8679 66.6579 29.5397 65.6255 30.8158 64.3021L30.096 63.608ZM25.488 66.488L25.1346 65.5525C23.3342 66.2327 21.4066 66.576 19.344 66.576V67.576V68.576C21.6334 68.576 23.8018 68.194 25.8414 67.4235L25.488 66.488ZM27.408 48.44H28.408V46.264H27.408H26.408V48.44H27.408ZM27.408 46.264H28.408C28.408 43.8669 27.5549 41.8583 25.831 40.3314L25.168 41.08L24.505 41.8286C25.7678 42.9471 26.408 44.3945 26.408 46.264H27.408ZM25.168 41.08L25.8534 40.3518C24.1781 38.7751 21.9714 38.032 19.344 38.032V39.032V40.032C21.5806 40.032 23.2566 40.6543 24.4826 41.8082L25.168 41.08ZM19.344 39.032V38.032C16.7155 38.032 14.4947 38.7754 12.7812 40.342L13.456 41.08L14.1308 41.818C15.4039 40.654 17.1085 40.032 19.344 40.032V39.032ZM13.456 41.08L12.7822 40.341C11.1044 41.8708 10.28 43.8767 10.28 46.264H11.28H12.28C12.28 44.3846 12.9063 42.9345 14.1298 41.819L13.456 41.08ZM11.28 46.264H10.28V48.44H11.28H12.28V46.264H11.28ZM11.28 48.44V49.44H27.408V48.44V47.44H11.28V48.44ZM42.284 65.016L41.5325 65.6759L41.5407 65.685L42.284 65.016ZM41.324 22.648L41.9053 23.4618L41.9122 23.4567L41.324 22.648ZM45.548 21.624H46.548V20.624H45.548V21.624ZM46.572 61.56L45.8438 62.2454L45.8438 62.2454L46.572 61.56ZM54.316 61.496L55.0717 60.8411L54.5296 60.2156L53.8139 60.6312L54.316 61.496ZM53.548 66.424L52.9637 65.6125L52.9637 65.6125L53.548 66.424ZM49.26 67.576V66.576C46.3233 66.576 44.313 65.7756 43.0273 64.347L42.284 65.016L41.5407 65.685C43.327 67.6698 45.9674 68.576 49.26 68.576V67.576ZM42.284 65.016L43.0354 64.3562C41.6916 62.8258 40.98 60.7945 40.98 58.168H39.98H38.98C38.98 61.1735 39.8044 63.7076 41.5326 65.6758L42.284 65.016ZM39.98 58.168H40.98V25.72H39.98H38.98V58.168H39.98ZM39.98 25.72H40.98C40.98 24.535 41.344 23.8626 41.9052 23.4617L41.324 22.648L40.7428 21.8343C39.512 22.7134 38.98 24.089 38.98 25.72H39.98ZM41.324 22.648L41.9122 23.4567C42.6034 22.954 43.7621 22.624 45.548 22.624V21.624V20.624C43.5792 20.624 41.9219 20.9766 40.7358 21.8393L41.324 22.648ZM45.548 21.624H44.548V57.976H45.548H46.548V21.624H45.548ZM45.548 57.976H44.548C44.548 59.7348 44.9013 61.244 45.8438 62.2454L46.572 61.56L47.3002 60.8746C46.8773 60.4253 46.548 59.5452 46.548 57.976H45.548ZM46.572 61.56L45.8438 62.2454C46.8014 63.2628 48.2669 63.648 49.964 63.648V62.648V61.648C48.5038 61.648 47.708 61.3079 47.3002 60.8746L46.572 61.56ZM49.964 62.648V63.648C51.7131 63.648 53.3379 63.2203 54.8181 62.3608L54.316 61.496L53.8139 60.6312C52.6488 61.3077 51.3722 61.648 49.964 61.648V62.648ZM54.316 61.496L53.5603 62.1509C53.9561 62.6076 54.148 63.1212 54.148 63.736H55.148H56.148C56.148 62.6441 55.7852 61.6644 55.0717 60.8411L54.316 61.496ZM55.148 63.736H54.148C54.148 64.3492 53.8513 64.9734 52.9637 65.6125L53.548 66.424L54.1323 67.2355C55.378 66.3386 56.148 65.1708 56.148 63.736H55.148ZM53.548 66.424L52.9637 65.6125C52.1192 66.2205 50.917 66.576 49.26 66.576V67.576V68.576C51.187 68.576 52.8435 68.1635 54.1323 67.2355L53.548 66.424ZM66.118 66.104L65.6708 66.9984L65.6783 67.0022L65.6859 67.0058L66.118 66.104ZM61.318 61.944L60.4768 62.4848L60.4828 62.494L61.318 61.944ZM61.382 40.312L60.5529 39.7529L60.5484 39.7596L60.544 39.7663L61.382 40.312ZM66.31 36.024L66.7572 36.9185L66.7645 36.9148L66.31 36.024ZM79.75 35.96L79.2952 36.8506L79.3028 36.8544L79.75 35.96ZM84.55 40.184L83.7088 40.7248L83.7133 40.7318L83.718 40.7387L84.55 40.184ZM85.574 52.088L86.2497 52.8252L86.2497 52.8252L85.574 52.088ZM65.03 52.792V51.792H64.03V52.792H65.03ZM67.078 60.92L66.3822 61.6382L66.3877 61.6436L66.3933 61.6488L67.078 60.92ZM81.094 56.504L81.0275 55.5062L80.094 55.5684V56.504H81.094ZM84.294 57.272L83.7205 58.0912L83.7437 58.1074L83.7676 58.1223L84.294 57.272ZM83.846 63.608L83.1389 62.9009L83.1325 62.9073L83.1262 62.9139L83.846 63.608ZM79.238 66.488L78.8846 65.5525L78.8846 65.5525L79.238 66.488ZM81.158 48.44V49.44H82.158V48.44H81.158ZM78.918 41.08L78.2326 41.8082L78.2436 41.8186L78.255 41.8286L78.918 41.08ZM67.206 41.08L67.8798 41.819L67.8808 41.818L67.206 41.08ZM65.03 48.44H64.03V49.44H65.03V48.44ZM73.094 67.576V66.576C70.619 66.576 68.4448 66.1101 66.5501 65.2022L66.118 66.104L65.6859 67.0058C67.8872 68.0606 70.3636 68.576 73.094 68.576V67.576ZM66.118 66.104L66.5652 65.2096C64.6595 64.2567 63.1995 62.9829 62.1532 61.394L61.318 61.944L60.4828 62.494C61.7405 64.4037 63.4805 65.9033 65.6708 66.9984L66.118 66.104ZM61.318 61.944L62.1592 61.4032C61.1153 59.7794 60.59 57.9633 60.59 55.928H59.59H58.59C58.59 58.33 59.2167 60.5246 60.4768 62.4848L61.318 61.944ZM59.59 55.928H60.59V46.456H59.59H58.59V55.928H59.59ZM59.59 46.456H60.59C60.59 44.3817 61.1347 42.5244 62.22 40.8577L61.382 40.312L60.544 39.7663C59.24 41.7689 58.59 44.0077 58.59 46.456H59.59ZM61.382 40.312L62.2111 40.8711C63.3487 39.1843 64.8577 37.8682 66.7572 36.9184L66.31 36.024L65.8628 35.1296C63.6663 36.2278 61.89 37.7703 60.5529 39.7529L61.382 40.312ZM66.31 36.024L66.7645 36.9148C68.7092 35.9225 70.8141 35.424 73.094 35.424V34.424V33.424C70.5099 33.424 68.0921 33.9921 65.8555 35.1332L66.31 36.024ZM73.094 34.424V35.424C75.3808 35.424 77.4418 35.9042 79.2952 36.8506L79.75 35.96L80.2048 35.0694C78.0475 33.9678 75.6712 33.424 73.094 33.424V34.424ZM79.75 35.96L79.3028 36.8544C81.2025 37.8043 82.6613 39.0952 83.7088 40.7248L84.55 40.184L85.3912 39.6432C84.1347 37.6888 82.3935 36.1637 80.1972 35.0656L79.75 35.96ZM84.55 40.184L83.718 40.7387C84.7975 42.358 85.342 44.1897 85.342 46.264H86.342H87.342C87.342 43.8156 86.6919 41.594 85.3821 39.6293L84.55 40.184ZM86.342 46.264H85.342V50.36H86.342H87.342V46.264H86.342ZM86.342 50.36H85.342C85.342 50.7568 85.2077 51.0672 84.8983 51.3508L85.574 52.088L86.2497 52.8252C86.9643 52.1702 87.342 51.3285 87.342 50.36H86.342ZM85.574 52.088L84.8983 51.3508C84.5795 51.6431 84.2053 51.792 83.718 51.792V52.792V53.792C84.6813 53.792 85.5445 53.4716 86.2497 52.8252L85.574 52.088ZM83.718 52.792V51.792H65.03V52.792V53.792H83.718V52.792ZM65.03 52.792H64.03V55.672H65.03H66.03V52.792H65.03ZM65.03 55.672H64.03C64.03 58.076 64.7937 60.0994 66.3822 61.6382L67.078 60.92L67.7738 60.2018C66.6316 59.0953 66.03 57.62 66.03 55.672H65.03ZM67.078 60.92L66.3933 61.6488C68.0434 63.1989 70.327 63.904 73.094 63.904V62.904V61.904C70.6557 61.904 68.9286 61.2864 67.7627 60.1912L67.078 60.92ZM73.094 62.904V63.904C75.8275 63.904 78.0784 63.3008 79.6909 61.9403L79.046 61.176L78.4011 60.4117C77.2829 61.3552 75.5658 61.904 73.094 61.904V62.904ZM79.046 61.176L79.6909 61.9403C81.3054 60.5781 82.094 58.7284 82.094 56.504H81.094H80.094C80.094 58.2049 79.5173 59.4699 78.4011 60.4117L79.046 61.176ZM81.094 56.504L81.1605 57.5018C82.2673 57.428 83.0941 57.6527 83.7205 58.0912L84.294 57.272L84.8675 56.4528C83.7873 55.6966 82.4807 55.4093 81.0275 55.5062L81.094 56.504ZM84.294 57.272L83.7676 58.1223C84.3509 58.4833 84.638 58.9829 84.638 59.768H85.638H86.638C86.638 58.3345 86.0291 57.17 84.8204 56.4217L84.294 57.272ZM85.638 59.768H84.638C84.638 60.8081 84.1932 61.8466 83.1389 62.9009L83.846 63.608L84.5531 64.3151C85.8881 62.9801 86.638 61.4586 86.638 59.768H85.638ZM83.846 63.608L83.1262 62.9139C82.0983 63.9798 80.6981 64.8674 78.8846 65.5525L79.238 66.488L79.5914 67.4235C81.6179 66.6579 83.2897 65.6255 84.5658 64.3021L83.846 63.608ZM79.238 66.488L78.8846 65.5525C77.0842 66.2327 75.1566 66.576 73.094 66.576V67.576V68.576C75.3834 68.576 77.5518 68.194 79.5914 67.4235L79.238 66.488ZM81.158 48.44H82.158V46.264H81.158H80.158V48.44H81.158ZM81.158 46.264H82.158C82.158 43.8669 81.3049 41.8583 79.581 40.3314L78.918 41.08L78.255 41.8286C79.5178 42.9471 80.158 44.3945 80.158 46.264H81.158ZM78.918 41.08L79.6034 40.3518C77.9281 38.7751 75.7214 38.032 73.094 38.032V39.032V40.032C75.3306 40.032 77.0066 40.6543 78.2326 41.8082L78.918 41.08ZM73.094 39.032V38.032C70.4655 38.032 68.2447 38.7754 66.5312 40.342L67.206 41.08L67.8808 41.818C69.1539 40.654 70.8585 40.032 73.094 40.032V39.032ZM67.206 41.08L66.5322 40.341C64.8544 41.8708 64.03 43.8767 64.03 46.264H65.03H66.03C66.03 44.3846 66.6563 42.9345 67.8798 41.819L67.206 41.08ZM65.03 46.264H64.03V48.44H65.03H66.03V46.264H65.03ZM65.03 48.44V49.44H81.158V48.44V47.44H65.03V48.44ZM102.631 67.064L103.186 66.2319L102.631 67.064ZM101.543 65.784L100.614 66.1534L100.617 66.161L100.62 66.1686L101.543 65.784ZM89.255 34.872L88.8078 33.9776L87.9866 34.3882L88.3257 35.2414L89.255 34.872ZM90.343 34.552L90.1641 33.5681L90.1641 33.5681L90.343 34.552ZM94.119 35.064L93.612 35.9259L94.119 35.064ZM95.591 36.92L94.6374 37.2211L94.6444 37.2433L94.6524 37.2651L95.591 36.92ZM104.039 59.896L104.983 60.2263L105.101 59.8877L104.978 59.5509L104.039 59.896ZM103.143 62.456L102.199 62.1256L101.883 63.029L102.772 63.3845L103.143 62.456ZM103.463 62.584L103.092 63.5125L104.041 63.8923L104.4 62.9344L103.463 62.584ZM113.063 36.92L114 37.2704L114.009 37.246L114.017 37.2211L113.063 36.92ZM114.535 35.064L115.042 35.9259L115.042 35.9259L114.535 35.064ZM118.247 34.552L118.426 33.5681L118.426 33.5681L118.247 34.552ZM119.399 34.872L120.328 35.2414L120.688 34.3365L119.793 33.9529L119.399 34.872ZM107.111 65.784L108.034 66.1686L108.037 66.161L108.04 66.1534L107.111 65.784ZM106.023 67.064L105.468 66.2319L105.451 66.2433L105.435 66.2553L106.023 67.064ZM104.359 67.576V66.576C103.908 66.576 103.527 66.4592 103.186 66.2319L102.631 67.064L102.076 67.8961C102.759 68.3514 103.53 68.576 104.359 68.576V67.576ZM102.631 67.064L103.186 66.2319C102.819 65.9877 102.595 65.7095 102.466 65.3994L101.543 65.784L100.62 66.1686C100.917 66.8825 101.419 67.4577 102.076 67.8961L102.631 67.064ZM101.543 65.784L102.472 65.4146L90.1843 34.5026L89.255 34.872L88.3257 35.2414L100.614 66.1534L101.543 65.784ZM89.255 34.872L89.7022 35.7664C89.8358 35.6996 90.0926 35.6139 90.5219 35.5359L90.343 34.552L90.1641 33.5681C89.6548 33.6607 89.1862 33.7884 88.8078 33.9776L89.255 34.872ZM90.343 34.552L90.5219 35.5359C90.9457 35.4588 91.3113 35.424 91.623 35.424V34.424V33.424C91.1667 33.424 90.6789 33.4745 90.1641 33.5681L90.343 34.552ZM91.623 34.424V35.424C92.4045 35.424 93.0575 35.5998 93.612 35.9259L94.119 35.064L94.626 34.2021C93.7298 33.6749 92.7189 33.424 91.623 33.424V34.424ZM94.119 35.064L93.612 35.9259C94.1219 36.2259 94.455 36.6435 94.6374 37.2211L95.591 36.92L96.5446 36.6189C96.215 35.5752 95.5668 34.7555 94.626 34.2021L94.119 35.064ZM95.591 36.92L94.6524 37.2651L103.1 60.2411L104.039 59.896L104.978 59.5509L96.5296 36.5749L95.591 36.92ZM104.039 59.896L103.095 59.5656L102.199 62.1256L103.143 62.456L104.087 62.7864L104.983 60.2263L104.039 59.896ZM103.143 62.456L102.772 63.3845L103.092 63.5125L103.463 62.584L103.834 61.6555L103.514 61.5275L103.143 62.456ZM103.463 62.584L104.4 62.9344L114 37.2704L113.063 36.92L112.126 36.5696L102.526 62.2336L103.463 62.584ZM113.063 36.92L114.017 37.2211C114.199 36.6435 114.532 36.2259 115.042 35.9259L114.535 35.064L114.028 34.2021C113.087 34.7555 112.439 35.5752 112.109 36.6189L113.063 36.92ZM114.535 35.064L115.042 35.9259C115.604 35.5956 116.237 35.424 116.967 35.424V34.424V33.424C115.905 33.424 114.917 33.6791 114.028 34.2021L114.535 35.064ZM116.967 34.424V35.424C117.279 35.424 117.644 35.4588 118.068 35.5359L118.247 34.552L118.426 33.5681C117.911 33.4745 117.423 33.424 116.967 33.424V34.424ZM118.247 34.552L118.068 35.5359C118.495 35.6134 118.799 35.703 119.005 35.7911L119.399 34.872L119.793 33.9529C119.401 33.785 118.938 33.6613 118.426 33.5681L118.247 34.552ZM119.399 34.872L118.47 34.5026L106.182 65.4146L107.111 65.784L108.04 66.1534L120.328 35.2414L119.399 34.872ZM107.111 65.784L106.188 65.3994C106.059 65.7095 105.835 65.9877 105.468 66.2319L106.023 67.064L106.578 67.8961C107.235 67.4577 107.737 66.8825 108.034 66.1686L107.111 65.784ZM106.023 67.064L105.435 66.2553C105.154 66.4595 104.81 66.576 104.359 66.576V67.576V68.576C105.188 68.576 105.953 68.3512 106.611 67.8727L106.023 67.064ZM124.958 64.632L124.295 65.381L124.303 65.3872L124.958 64.632ZM125.15 49.08L125.792 49.8471L125.8 49.8402L125.15 49.08ZM144.542 50.424L143.803 51.0978L144.509 51.8716L145.249 51.1311L144.542 50.424ZM144.798 50.168L145.505 50.8751L146.182 50.1981L145.535 49.4923L144.798 50.168ZM143.198 48.568H142.198V49.0041L142.518 49.3008L143.198 48.568ZM125.726 44.344L125.279 45.2384L126.144 45.6711L126.605 44.8206L125.726 44.344ZM123.998 43L123.184 43.5812L123.208 43.6146L123.235 43.6459L123.998 43ZM125.086 37.944L125.75 38.6914L125.758 38.6847L125.765 38.6778L125.086 37.944ZM129.63 35.384L129.314 34.4353L129.307 34.4375L129.63 35.384ZM145.182 37.432L144.525 38.1863L144.532 38.1922L145.182 37.432ZM147.422 66.552L146.797 65.7711L146.797 65.7711L147.422 66.552ZM143.39 67.576H142.39V68.576H143.39V67.576ZM143.39 64.568L142.667 63.8775L142.39 64.1673V64.568H143.39ZM144.862 62.904L145.756 63.3512L146.079 62.7065L145.569 62.1969L144.862 62.904ZM144.606 62.648L145.313 61.9409L144.544 61.1715L143.842 62.0029L144.606 62.648ZM141.022 61.496L140.436 60.6852L140.426 60.6933L141.022 61.496ZM141.086 52.216L140.475 53.0078L140.475 53.0078L141.086 52.216ZM129.182 52.216L129.813 52.9921L129.815 52.99L129.182 52.216ZM129.118 61.56L128.475 62.3262L128.489 62.3373L128.502 62.348L129.118 61.56ZM133.854 67.576V66.576C130.369 66.576 127.654 65.6481 125.613 63.8768L124.958 64.632L124.303 65.3872C126.784 67.5412 130 68.576 133.854 68.576V67.576ZM124.958 64.632L125.621 63.883C123.635 62.1267 122.63 59.8274 122.63 56.888H121.63H120.63C120.63 60.3486 121.844 63.212 124.295 65.381L124.958 64.632ZM121.63 56.888H122.63C122.63 53.9212 123.687 51.6071 125.792 49.8471L125.15 49.08L124.508 48.3129C121.919 50.4782 120.63 53.3695 120.63 56.888H121.63ZM125.15 49.08L125.8 49.8402C127.924 48.0247 130.768 47.072 134.43 47.072V46.072V45.072C130.412 45.072 127.069 46.1247 124.5 48.3198L125.15 49.08ZM134.43 46.072V47.072C138.259 47.072 141.356 48.4142 143.803 51.0978L144.542 50.424L145.281 49.7502C142.437 46.6311 138.793 45.072 134.43 45.072V46.072ZM144.542 50.424L145.249 51.1311L145.505 50.8751L144.798 50.168L144.091 49.4609L143.835 49.7169L144.542 50.424ZM144.798 50.168L145.535 49.4923C145.045 48.9575 144.492 48.4051 143.878 47.8352L143.198 48.568L142.518 49.3008C143.098 49.8402 143.612 50.3545 144.061 50.8437L144.798 50.168ZM143.198 48.568H144.198V45.88H143.198H142.198V48.568H143.198ZM143.198 45.88H144.198C144.198 43.4786 143.434 41.4938 141.809 40.0714L141.15 40.824L140.491 41.5766C141.597 42.5435 142.198 43.9294 142.198 45.88H143.198ZM141.15 40.824L141.809 40.0714C140.201 38.6648 137.992 38.032 135.326 38.032V39.032V40.032C137.695 40.032 139.368 40.5939 140.491 41.5766L141.15 40.824ZM135.326 39.032V38.032C132.954 38.032 130.86 38.5012 129.082 39.485C127.298 40.472 125.888 41.9466 124.847 43.8674L125.726 44.344L126.605 44.8206C127.484 43.2001 128.634 42.0187 130.05 41.235C131.472 40.4482 133.218 40.032 135.326 40.032V39.032ZM125.726 44.344L126.173 43.4496C125.605 43.1657 125.139 42.8002 124.761 42.3541L123.998 43L123.235 43.6459C123.796 44.3092 124.481 44.8396 125.279 45.2384L125.726 44.344ZM123.998 43L124.812 42.4188C124.478 41.9516 124.358 41.5532 124.358 41.208H123.358H122.358C122.358 42.0574 122.665 42.8537 123.184 43.5812L123.998 43ZM123.358 41.208H124.358C124.358 40.4295 124.736 39.5931 125.75 38.6914L125.086 37.944L124.422 37.1966C123.132 38.3429 122.358 39.6825 122.358 41.208H123.358ZM125.086 37.944L125.765 38.6778C126.791 37.7277 128.174 36.9368 129.953 36.3305L129.63 35.384L129.307 34.4375C127.331 35.1112 125.685 36.0269 124.407 37.2102L125.086 37.944ZM129.63 35.384L129.946 36.3327C131.761 35.7278 133.659 35.424 135.646 35.424V34.424V33.424C133.451 33.424 131.339 33.7602 129.314 34.4353L129.63 35.384ZM135.646 34.424V35.424C139.538 35.424 142.456 36.385 144.525 38.1863L145.182 37.432L145.839 36.6777C143.3 34.4683 139.861 33.424 135.646 33.424V34.424ZM145.182 37.432L144.532 38.1922C146.623 39.9785 147.702 42.4551 147.702 45.752H148.702H149.702C149.702 41.9662 148.435 38.8962 145.832 36.6718L145.182 37.432ZM148.702 45.752H147.702V63.288H148.702H149.702V45.752H148.702ZM148.702 63.288H147.702C147.702 64.5959 147.334 65.3415 146.797 65.7711L147.422 66.552L148.047 67.3329C149.216 66.3971 149.702 64.9668 149.702 63.288H148.702ZM147.422 66.552L146.797 65.7711C146.207 66.2437 145.139 66.576 143.39 66.576V67.576V68.576C145.311 68.576 146.931 68.2257 148.047 67.3329L147.422 66.552ZM143.39 67.576H144.39V64.568H143.39H142.39V67.576H143.39ZM143.39 64.568L144.113 65.2585C144.565 64.7857 144.921 64.4018 145.179 64.1106C145.307 63.9655 145.418 63.8361 145.505 63.7259C145.577 63.6359 145.684 63.4969 145.756 63.3512L144.862 62.904L143.968 62.4568C143.998 62.3964 144.011 62.3907 143.939 62.4821C143.882 62.5533 143.798 62.6532 143.681 62.7854C143.448 63.0488 143.111 63.4116 142.667 63.8775L143.39 64.568ZM144.862 62.904L145.569 62.1969L145.313 61.9409L144.606 62.648L143.899 63.3551L144.155 63.6111L144.862 62.904ZM144.606 62.648L143.842 62.0029C141.263 65.0575 137.962 66.576 133.854 66.576V67.576V68.576C138.536 68.576 142.402 66.8092 145.37 63.2931L144.606 62.648ZM134.814 63.16V64.16C137.586 64.16 139.893 63.5802 141.618 62.2987L141.022 61.496L140.426 60.6933C139.164 61.6305 137.332 62.16 134.814 62.16V63.16ZM141.022 61.496L141.607 62.3067C143.415 61.0015 144.326 59.1582 144.326 56.888H143.326H142.326C142.326 58.5432 141.701 59.7718 140.437 60.6853L141.022 61.496ZM143.326 56.888H144.326C144.326 54.63 143.447 52.7743 141.697 51.4242L141.086 52.216L140.475 53.0078C141.712 53.9616 142.326 55.2206 142.326 56.888H143.326ZM141.086 52.216L141.697 51.4242C139.973 50.0942 137.683 49.488 134.942 49.488V50.488V51.488C137.406 51.488 139.213 52.0338 140.475 53.0078L141.086 52.216ZM134.942 50.488V49.488C132.357 49.488 130.188 50.1011 128.549 51.442L129.182 52.216L129.815 52.99C130.992 52.0269 132.663 51.488 134.942 51.488V50.488ZM129.182 52.216L128.551 51.4399C126.918 52.7671 126.134 54.629 126.134 56.888H127.134H128.134C128.134 55.1364 128.715 53.8835 129.813 52.9921L129.182 52.216ZM127.134 56.888H126.134C126.134 59.1358 126.888 60.9951 128.475 62.3262L129.118 61.56L129.761 60.7938C128.702 59.9062 128.134 58.6509 128.134 56.888H127.134ZM129.118 61.56L128.502 62.348C130.102 63.598 132.247 64.16 134.814 64.16V63.16V62.16C132.517 62.16 130.864 61.6554 129.734 60.772L129.118 61.56ZM160.432 65.016L159.671 65.6653L159.679 65.6745L160.432 65.016ZM158.192 39.48H159.192V38.48H158.192V39.48ZM152.24 39.48H151.24V40.48H152.24V39.48ZM153.2 36.152L152.432 35.5118L152.432 35.5118L153.2 36.152ZM158.256 35V36H159.256V35H158.256ZM159.6 25.848L160.181 26.6618L160.188 26.6567L159.6 25.848ZM163.76 24.824H164.76V23.824H163.76V24.824ZM163.76 35H162.76V36H163.76V35ZM172.272 35H173.272V34H172.272V35ZM163.824 39.48V38.48H162.824V39.48H163.824ZM164.72 61.624L163.948 62.2597L163.968 62.2845L163.99 62.3079L164.72 61.624ZM172.336 61.496L173.043 60.7889L172.499 60.2449L171.834 60.6312L172.336 61.496ZM171.568 66.424L170.984 65.6125L170.984 65.6125L171.568 66.424ZM167.216 67.576V66.576C164.373 66.576 162.43 65.7806 161.185 64.3575L160.432 65.016L159.679 65.6745C161.421 67.6648 164 68.576 167.216 68.576V67.576ZM160.432 65.016L161.193 64.3667C159.886 62.8366 159.192 60.8015 159.192 58.168H158.192H157.192C157.192 61.1665 157.991 63.6968 159.671 65.6653L160.432 65.016ZM158.192 58.168H159.192V39.48H158.192H157.192V58.168H158.192ZM158.192 39.48V38.48H152.24V39.48V40.48H158.192V39.48ZM152.24 39.48H153.24C153.24 38.1603 153.533 37.3147 153.968 36.7922L153.2 36.152L152.432 35.5118C151.587 36.5253 151.24 37.8983 151.24 39.48H152.24ZM153.2 36.152L153.968 36.7922C154.396 36.279 154.975 36 155.824 36V35V34C154.455 34 153.284 34.489 152.432 35.5118L153.2 36.152ZM155.824 35V36H158.256V35V34H155.824V35ZM158.256 35H159.256V28.92H158.256H157.256V35H158.256ZM158.256 28.92H159.256C159.256 27.735 159.62 27.0626 160.181 26.6617L159.6 25.848L159.019 25.0343C157.788 25.9134 157.256 27.289 157.256 28.92H158.256ZM159.6 25.848L160.188 26.6567C160.882 26.1518 162.023 25.824 163.76 25.824V24.824V23.824C161.828 23.824 160.195 24.1789 159.012 25.0393L159.6 25.848ZM163.76 24.824H162.76V35H163.76H164.76V24.824H163.76ZM163.76 35V36H172.272V35V34H163.76V35ZM172.272 35H171.272C171.272 36.3637 170.963 37.1997 170.521 37.691C170.097 38.1623 169.401 38.48 168.24 38.48V39.48V40.48C169.767 40.48 171.087 40.051 172.007 39.029C172.909 38.027 173.272 36.623 173.272 35H172.272ZM168.24 39.48V38.48H163.824V39.48V40.48H168.24V39.48ZM163.824 39.48H162.824V57.976H163.824H164.824V39.48H163.824ZM163.824 57.976H162.824C162.824 59.7469 163.124 61.2586 163.948 62.2597L164.72 61.624L165.492 60.9883C165.122 60.5388 164.824 59.6184 164.824 57.976H163.824ZM164.72 61.624L163.99 62.3079C164.919 63.2982 166.404 63.648 168.112 63.648V62.648V61.648C166.577 61.648 165.801 61.3151 165.45 60.9401L164.72 61.624ZM168.112 62.648V63.648C169.786 63.648 171.367 63.2151 172.838 62.3608L172.336 61.496L171.834 60.6312C170.66 61.3129 169.425 61.648 168.112 61.648V62.648ZM172.336 61.496L171.629 62.2031C171.96 62.5341 172.168 63.0067 172.168 63.736H173.168H174.168C174.168 62.588 173.821 61.5672 173.043 60.7889L172.336 61.496ZM173.168 63.736H172.168C172.168 64.3492 171.871 64.9734 170.984 65.6125L171.568 66.424L172.152 67.2355C173.398 66.3386 174.168 65.1708 174.168 63.736H173.168ZM171.568 66.424L170.984 65.6125C170.143 66.218 168.922 66.576 167.216 66.576V67.576V68.576C169.18 68.576 170.86 68.166 172.152 67.2355L171.568 66.424ZM185.806 66.104L185.358 66.9984L185.366 67.0022L185.373 67.0058L185.806 66.104ZM181.006 61.944L180.164 62.4848L180.17 62.494L181.006 61.944ZM181.07 40.312L180.24 39.7529L180.236 39.7596L180.232 39.7663L181.07 40.312ZM185.998 36.024L186.445 36.9185L186.452 36.9148L185.998 36.024ZM199.438 35.96L198.983 36.8506L198.99 36.8544L199.438 35.96ZM204.238 40.184L203.396 40.7248L203.401 40.7318L203.405 40.7387L204.238 40.184ZM205.262 52.088L205.937 52.8252L205.937 52.8252L205.262 52.088ZM184.718 52.792V51.792H183.718V52.792H184.718ZM186.766 60.92L186.07 61.6382L186.075 61.6436L186.081 61.6488L186.766 60.92ZM200.782 56.504L200.715 55.5062L199.782 55.5684V56.504H200.782ZM203.982 57.272L203.408 58.0912L203.431 58.1074L203.455 58.1223L203.982 57.272ZM203.534 63.608L202.826 62.9009L202.82 62.9073L202.814 62.9139L203.534 63.608ZM198.926 66.488L198.572 65.5525L198.572 65.5525L198.926 66.488ZM200.846 48.44V49.44H201.846V48.44H200.846ZM198.606 41.08L197.92 41.8082L197.931 41.8186L197.942 41.8286L198.606 41.08ZM186.894 41.08L187.567 41.819L187.568 41.818L186.894 41.08ZM184.718 48.44H183.718V49.44H184.718V48.44ZM192.782 67.576V66.576C190.307 66.576 188.132 66.1101 186.238 65.2022L185.806 66.104L185.373 67.0058C187.575 68.0606 190.051 68.576 192.782 68.576V67.576ZM185.806 66.104L186.253 65.2096C184.347 64.2567 182.887 62.9829 181.841 61.394L181.006 61.944L180.17 62.494C181.428 64.4037 183.168 65.9033 185.358 66.9984L185.806 66.104ZM181.006 61.944L181.847 61.4032C180.803 59.7794 180.278 57.9633 180.278 55.928H179.278H178.278C178.278 58.33 178.904 60.5246 180.164 62.4848L181.006 61.944ZM179.278 55.928H180.278V46.456H179.278H178.278V55.928H179.278ZM179.278 46.456H180.278C180.278 44.3817 180.822 42.5244 181.907 40.8577L181.07 40.312L180.232 39.7663C178.927 41.7689 178.278 44.0077 178.278 46.456H179.278ZM181.07 40.312L181.899 40.8711C183.036 39.1843 184.545 37.8682 186.445 36.9184L185.998 36.024L185.55 35.1296C183.354 36.2278 181.577 37.7703 180.24 39.7529L181.07 40.312ZM185.998 36.024L186.452 36.9148C188.397 35.9225 190.502 35.424 192.782 35.424V34.424V33.424C190.197 33.424 187.78 33.9921 185.543 35.1332L185.998 36.024ZM192.782 34.424V35.424C195.068 35.424 197.129 35.9042 198.983 36.8506L199.438 35.96L199.892 35.0694C197.735 33.9678 195.359 33.424 192.782 33.424V34.424ZM199.438 35.96L198.99 36.8544C200.89 37.8043 202.349 39.0952 203.396 40.7248L204.238 40.184L205.079 39.6432C203.822 37.6888 202.081 36.1637 199.885 35.0656L199.438 35.96ZM204.238 40.184L203.405 40.7387C204.485 42.358 205.03 44.1897 205.03 46.264H206.03H207.03C207.03 43.8156 206.379 41.594 205.07 39.6293L204.238 40.184ZM206.03 46.264H205.03V50.36H206.03H207.03V46.264H206.03ZM206.03 50.36H205.03C205.03 50.7568 204.895 51.0672 204.586 51.3508L205.262 52.088L205.937 52.8252C206.652 52.1702 207.03 51.3285 207.03 50.36H206.03ZM205.262 52.088L204.586 51.3508C204.267 51.6431 203.893 51.792 203.406 51.792V52.792V53.792C204.369 53.792 205.232 53.4716 205.937 52.8252L205.262 52.088ZM203.406 52.792V51.792H184.718V52.792V53.792H203.406V52.792ZM184.718 52.792H183.718V55.672H184.718H185.718V52.792H184.718ZM184.718 55.672H183.718C183.718 58.076 184.481 60.0994 186.07 61.6382L186.766 60.92L187.461 60.2018C186.319 59.0953 185.718 57.62 185.718 55.672H184.718ZM186.766 60.92L186.081 61.6488C187.731 63.1989 190.015 63.904 192.782 63.904V62.904V61.904C190.343 61.904 188.616 61.2864 187.45 60.1912L186.766 60.92ZM192.782 62.904V63.904C195.515 63.904 197.766 63.3008 199.378 61.9403L198.734 61.176L198.089 60.4117C196.97 61.3552 195.253 61.904 192.782 61.904V62.904ZM198.734 61.176L199.378 61.9403C200.993 60.5781 201.782 58.7284 201.782 56.504H200.782H199.782C199.782 58.2049 199.205 59.4699 198.089 60.4117L198.734 61.176ZM200.782 56.504L200.848 57.5018C201.955 57.428 202.782 57.6527 203.408 58.0912L203.982 57.272L204.555 56.4528C203.475 55.6966 202.168 55.4093 200.715 55.5062L200.782 56.504ZM203.982 57.272L203.455 58.1223C204.038 58.4833 204.326 58.9829 204.326 59.768H205.326H206.326C206.326 58.3345 205.717 57.17 204.508 56.4217L203.982 57.272ZM205.326 59.768H204.326C204.326 60.8081 203.881 61.8466 202.826 62.9009L203.534 63.608L204.241 64.3151C205.576 62.9801 206.326 61.4586 206.326 59.768H205.326ZM203.534 63.608L202.814 62.9139C201.786 63.9798 200.386 64.8674 198.572 65.5525L198.926 66.488L199.279 67.4235C201.305 66.6579 202.977 65.6255 204.253 64.3021L203.534 63.608ZM198.926 66.488L198.572 65.5525C196.772 66.2327 194.844 66.576 192.782 66.576V67.576V68.576C195.071 68.576 197.239 68.194 199.279 67.4235L198.926 66.488ZM200.846 48.44H201.846V46.264H200.846H199.846V48.44H200.846ZM200.846 46.264H201.846C201.846 43.8669 200.992 41.8583 199.269 40.3314L198.606 41.08L197.942 41.8286C199.205 42.9471 199.846 44.3945 199.846 46.264H200.846ZM198.606 41.08L199.291 40.3518C197.616 38.7751 195.409 38.032 192.782 38.032V39.032V40.032C195.018 40.032 196.694 40.6543 197.92 41.8082L198.606 41.08ZM192.782 39.032V38.032C190.153 38.032 187.932 38.7754 186.219 40.342L186.894 41.08L187.568 41.818C188.841 40.654 190.546 40.032 192.782 40.032V39.032ZM186.894 41.08L186.22 40.341C184.542 41.8708 183.718 43.8767 183.718 46.264H184.718H185.718C185.718 44.3846 186.344 42.9345 187.567 41.819L186.894 41.08ZM184.718 46.264H183.718V48.44H184.718H185.718V46.264H184.718ZM184.718 48.44V49.44H200.846V48.44V47.44H184.718V48.44Z" fill="#2BB87B" mask="url(#path-1-outside-1_16_43)"/>
<path d="M1.05246 78.3297C2.31215 77.4446 4.1137 76.7155 5.51088 76.3068C5.94801 76.1779 5.86402 76.5371 6.16829 76.4628C6.76782 76.3163 7.22083 75.9619 7.8227 75.8525C8.02047 75.8187 7.97746 76.3386 8.18012 76.2938C9.2911 76.0457 10.2272 75.5448 11.3148 75.2363C13.2741 74.6818 15.2125 74.1587 17.1509 73.6662C21.1811 72.6604 24.6239 72.8428 27.7543 72.4948C28.7685 72.3917 29.8922 72.3615 30.8937 72.1338C31.8438 71.8934 32.6456 71.768 33.3832 71.5787C33.6145 71.5204 33.4129 71.1417 33.4528 71.1017C34.0795 70.4916 33.9654 71.3364 34.4246 71.3852C36.2414 71.5876 38.0922 71.5002 39.7209 71.2574C40.4013 71.1551 39.6713 70.3851 40.3917 70.8027C40.4418 70.8309 40.2852 71.2692 40.4785 71.3061C40.9081 71.3889 41.7197 71.2792 42.0489 71.3018C42.6989 71.3466 42.7872 71.3396 43.3986 71.3262C44.2131 71.3126 45.2075 71.5035 46.0767 71.3903C46.2649 71.3648 46.0067 70.9281 46.3072 70.8477C46.6067 70.7672 47.4002 70.7927 47.6693 70.8935C47.9362 70.9941 47.8276 71.3424 47.8755 71.4213C48.2714 72.087 49.176 71.1488 49.2941 71.125C51.4461 70.7153 53.2784 71.243 55.2909 71.2463C56.8166 71.2478 58.4482 71.0825 59.8987 71.1175C60.1424 71.1237 60.3817 71.134 60.6176 71.1471C62.0784 71.2281 63.3747 71.4332 64.8468 71.4664C65.0262 71.4711 64.8409 70.9427 65.0603 70.9476C67.4204 71.0021 69.7695 71.2588 72.0511 71.8957C72.2815 71.9603 71.9235 72.3746 72.1486 72.4661C73.5207 73.0102 75.5961 74.2428 76.7028 72.4043C76.9154 72.4545 77.1387 72.5061 77.3584 72.5602C78.1917 72.7525 79.0564 73.0405 79.6634 73.4922C80.1724 73.8734 79.5116 74.2271 80.2441 74.1857C80.409 74.1779 80.3127 73.706 80.5551 73.7276C81.5772 73.82 82.584 74.2678 83.5675 74.3397C83.7684 74.3535 83.8332 73.9658 83.9071 73.9154C84.5233 73.5133 84.9612 74.6352 85.0957 74.7477C86.0318 75.5191 86.8598 75.6328 87.7765 75.8154C87.8809 75.8362 87.9862 75.8581 88.0925 75.882C88.3545 75.9411 88.1529 75.3634 88.4091 75.4017C89.7387 75.6074 91.0845 75.9154 92.3377 76.3708C92.6162 76.4732 92.2751 76.8659 92.4045 76.9372C92.9796 77.2462 93.2533 76.4386 93.8057 76.7127C93.9231 76.7693 93.7931 77.1347 93.809 77.1797C94.0576 77.8857 94.5104 77.0127 94.6035 77.0062C95.7885 76.9029 96.3882 77.9683 97.5293 77.9806C97.6655 77.9809 97.4263 77.4628 97.8056 77.4928C98.5287 77.5489 99.2647 77.6249 100.006 77.7231C101.92 77.9776 103.789 78.4498 105.53 79.0552C105.909 79.1867 105.564 79.4907 105.58 79.5393C105.849 80.3005 106.281 79.431 106.415 79.4209C107.465 79.3651 108.239 80.3222 109.138 79.3685C113.279 80.6027 117.552 80.9647 121.47 82.6596C121.52 82.6797 121.351 83.1186 121.452 83.1568C122.586 83.5845 122.566 82.9581 123.278 82.2453C123.334 82.1959 123.396 82.1465 123.466 82.0977C123.735 81.9082 124.247 83.0475 124.295 83.1327C124.463 83.4449 124.151 84.0933 124.213 84.1579C124.732 84.67 124.963 82.4132 125.741 82.5231C125.765 82.5303 125.604 82.929 125.664 82.9794C125.854 83.1379 126.07 83.001 126.257 83.1725C126.66 83.5646 126.681 84.6803 127.465 84.1408C127.567 84.0708 127.598 82.7774 128.291 82.9327C128.568 82.9963 129.799 83.1375 130.132 83.2642C130.467 83.3916 130.176 83.7718 130.198 83.7928C131.057 84.4562 130.681 84.6366 131.043 85.5007C131.406 86.3615 131.521 84.4328 131.741 84.2436C131.951 84.0538 132.59 84.5891 132.731 84.7647C132.879 84.9414 132.638 85.177 132.776 85.2837C133.704 85.9833 133.327 84.3871 133.69 84.1233C134.553 83.4982 134.97 84.9877 135.665 85.2105C135.854 85.2707 135.737 84.9292 135.908 84.9186C136.588 84.881 136.939 85.3707 137.761 85.0528C137.888 85.0003 138.604 84.2166 138.936 84.8884C138.982 84.9851 138.783 85.3213 139.057 85.4324C139.472 85.5994 140.233 85.762 140.712 85.6945C141.065 85.6445 140.741 85.0186 141.144 85.2461C141.323 85.3475 140.937 85.6509 141.278 85.813C141.443 85.8917 141.743 85.9519 142.054 85.9964C142.37 86.0422 142.699 86.0674 142.879 86.0782C143.22 86.0979 143.075 85.637 143.105 85.6097C143.285 85.4546 143.962 85.2962 144.017 85.3005C146.933 85.4744 149.638 86.3075 152.53 86.1028C152.757 86.0871 152.613 85.6155 152.647 85.6082C153.424 85.4213 152.797 86.6623 153.336 87.0863C153.267 86.1325 153.586 86.3089 154.133 86.2083C154.397 86.159 154.256 85.789 154.28 85.7514C154.673 85.1936 154.941 85.9184 155.011 86.0667C155.267 86.6124 155.551 85.9694 155.726 86.3337C155.902 86.6952 155.495 87.2307 156.022 87.2241C156.169 86.883 155.78 85.9916 156.178 85.8471C157.675 85.3029 160.483 85.9748 161.693 86.0282C162.903 86.083 163.287 86.0129 163.997 86.1238C165.271 86.3237 164.793 85.6708 165.577 85.3531C166.364 85.0352 166.009 86.6696 166.13 87.0172C166.246 87.3647 166.363 87.0024 166.507 87.1918C166.65 87.3812 166.354 87.6249 166.682 87.6907C167.006 87.7564 167.89 87.1168 167.995 86.7489C168.226 85.9694 167.812 85.1638 168.676 85.4331C168.726 85.4491 168.574 85.88 168.764 85.9196C169.508 86.0663 170.262 86.1399 171.01 86.2098C171.806 86.283 172.59 86.3423 173.357 86.4655C173.568 86.499 173.397 86.9812 173.52 87.006C174.792 87.2625 174.31 86.4769 174.952 85.555C174.858 86.7467 175.265 87.4579 176.232 87.4074C176.801 87.3768 176.68 86.8647 177.022 86.4754C177.125 86.3582 177.55 86.684 177.609 86.4349C177.79 85.6213 177.348 84.7641 178.334 85.0388C178.379 85.0519 178.279 85.4982 178.43 85.5117C179.395 85.5994 179.427 84.7601 180.431 84.5489C181.214 84.3842 182.685 84.703 183.601 84.6391C183.786 85.9614 184.614 85.518 184.798 84.5499C185.393 84.4837 186.003 84.3147 186.597 84.3237C186.797 84.3273 186.749 84.7313 186.781 84.7673C187.297 85.3301 187.363 84.4008 187.484 84.3391C188.779 83.7142 190.032 84.103 191.233 83.1689C191.274 83.1361 191.166 82.2105 191.667 82.8C191.699 82.8414 191.335 83.3431 191.979 83.2493C192.155 83.2246 192.382 83.2265 192.631 83.2349C193.26 83.2654 194.079 83.2768 194.615 82.8244C194.797 82.6748 195.107 81.8207 195.665 82.2758C195.741 82.3377 195.752 82.6104 195.87 82.7311C196.254 83.1135 196.135 82.1736 196.657 82.8497C197.18 83.5256 198.006 83.9001 198.687 83.1017C198.711 83.0772 198.679 82.3071 198.948 82.2309C199.376 82.1101 200.024 82.0549 200.463 81.8996C200.672 81.8253 200.389 81.4351 200.422 81.4147C201.496 80.8265 202.444 80.7355 203.601 80.5334C203.874 80.4861 204.156 80.426 204.452 80.3411C204.748 80.2598 205.22 79.3561 205.937 79.529C206.741 79.7009 207.284 82.0251 208.358 80.7398C208.806 80.2013 207.764 77.4423 209.469 78.0292C210.884 76.5188 212.754 75.942 214.138 74.438C214.199 74.3709 214.019 73.5376 214.217 73.4325C214.506 73.2802 214.847 73.5176 215.057 73.4289C215.245 73.3516 215.42 73.2637 215.591 73.1673L215.577 73.1775C216.098 72.6681 216.494 72.0639 217.07 71.62C217.347 71.4063 217.506 71.7797 217.836 71.5277C218.165 71.2765 218.05 70.707 218.641 70.5365C219.089 70.4092 220.076 70.9467 220.586 70.6893C219.954 69.8779 220.267 69.6505 220.634 69.0085C220.704 68.8849 220.37 68.694 220.392 68.6211C220.477 68.317 220.846 68.4022 220.911 68.094C220.927 68.0196 220.71 67.743 220.711 67.6666C220.712 67.0053 221.732 67.2069 221.908 67.243C222.58 67.3789 222.461 66.8919 222.856 66.8432C223.249 66.7959 223.009 67.311 223.398 67.1643C224.205 66.8595 225 66.1641 225.667 65.6552C225.931 65.4515 225.461 65.2259 225.492 65.1882C225.865 64.7705 226.49 64.6547 226.57 64.1277C226.597 63.9951 226.589 63.8393 226.538 63.6454C228.377 65.2783 226.731 63.2068 227.805 62.9983C227.889 62.983 228.665 63.827 228.525 64.1445C228.385 64.4616 227.807 64.4491 227.641 64.9033C227.621 64.9572 227.664 65.2836 227.713 65.605L227.751 65.5755C227.803 65.8962 227.853 66.2166 227.842 66.2664C227.683 67.0462 226.55 65.7658 226.467 65.7131C225.555 65.1482 225.734 66.4761 225.639 66.652C225.215 67.4513 224.512 67.6964 224.131 68.3266C223.881 68.7372 224.537 69.6425 224.238 69.8341C223.252 70.4676 221.958 69.5032 221.947 71.2449C221.945 71.6168 222.893 72.42 221.64 72.1998C221.561 72.1852 220.523 71.8986 220.6 72.5564C220.61 72.639 220.838 72.9124 220.811 72.973C220.63 73.374 220.246 73.325 220.006 73.7056C219.765 74.0862 219.508 74.5723 219.064 74.7996C218.797 74.9364 218.077 74.688 217.863 74.6612C217.501 74.6108 217.423 74.8951 217.303 75.0782C217.199 75.1644 216.888 75.3944 216.766 75.4507C216.666 75.5438 216.56 75.5881 216.372 75.4293C215.893 75.0428 215.899 74.05 215.15 74.0473C215.585 74.8634 216.011 75.7131 216.447 76.5355C215.359 77.1235 214.122 77.6532 212.995 78.5691C212.856 78.6834 213.305 78.9659 213.163 79.0986C212.563 79.6585 211.76 79.8357 211.103 80.4965C210.596 81.0088 210.229 81.9126 209.602 82.4687C208.619 81.8465 207.782 82.7631 206.912 83.0718C206.613 83.179 206.511 82.9134 206.272 82.9222C205.375 82.9466 206.097 83.6469 205.937 83.8755C205.575 84.3688 205.161 84.1052 204.73 83.777C204.356 83.442 203.944 83.0551 203.497 83.2381C203.448 83.2575 203.217 84.5321 203.158 84.6271C202.779 85.2434 202.941 84.2868 202.584 84.3223C201.929 84.3875 201.424 84.277 200.811 84.8334C200.635 84.9962 200.349 85.8341 199.765 85.4528C199.688 85.403 199.602 85.0387 199.552 85.0322C198.652 84.942 198.984 86.0638 198.635 86.5883C198.282 87.1139 197.312 86.5537 197.101 86.3696C196.548 85.8988 197.33 86.0375 197.334 85.9737C197.382 85.226 196.892 85.4964 196.471 85.5489C196.11 84.4578 195.575 84.6698 196.035 85.6063C196.087 85.7086 196.377 85.5206 196.471 85.5489C196.417 86.7322 195.777 87.0508 194.83 86.1832C194.389 85.7725 194.585 85.1517 193.632 85.5543C193.231 85.7175 193.464 86.3596 193.211 86.6839C193.194 86.7117 193.174 86.737 193.149 86.7591C192.482 87.3705 191.271 86.8884 190.406 87.2056C190.097 87.3196 190.505 87.6706 190.295 87.7634C189.737 88.0113 189.142 87.8133 188.573 88.1071C188.522 88.1341 188.752 88.5483 188.566 88.5944C187.139 88.9552 185.814 88.9137 184.285 89.1469C183.547 89.2621 182.256 89.6914 181.487 89.729C180.136 89.8061 178.468 89.2927 177.356 89.5298C176.634 89.6823 176.811 90.1236 176.523 90.4515C175.947 91.0884 174.812 90.0696 174.659 89.9092C174.656 89.9042 175.283 89.7677 174.935 89.5511C174.717 89.0759 174.666 89.9067 174.659 89.9092C174.562 89.8078 173.292 89.7533 173.056 89.8453C172.923 89.8967 173.011 90.3237 172.941 90.3424C172.315 90.5025 171.712 90.6199 171.076 90.6945C170.056 90.8213 169.02 90.8379 167.971 90.7315C167.942 90.7234 167.976 90.2422 167.908 90.2291C166.941 90.0344 166.342 90.6342 165.551 90.9983C164.765 91.3622 164.131 91.2568 163.642 90.4403C163.047 90.5545 162.177 90.2036 161.676 89.9893C161.178 89.7751 161.12 90.711 161.077 90.7301C159.718 91.3391 158.92 90.8119 157.5 90.7356C156.824 90.698 155.483 90.8344 154.747 90.9325C154.166 91.0121 153.818 90.7902 153.281 90.9249C153.208 90.9428 153.277 91.36 153.255 91.3758C152.65 91.8673 152.95 90.8525 152.829 90.6692C152.388 90.0022 152.123 89.6469 151.351 89.9433C151.175 90.0113 150.627 91.4657 150.298 91.543C149.873 91.6409 150.048 91.1201 149.601 91.2347C149.563 91.244 149.561 91.5684 149.288 91.5457C148.019 91.4446 146.638 91.1975 145.301 91.1477C145.119 91.1396 145.321 91.6673 145.057 91.6638C143.905 91.6474 142.64 91.5343 141.492 91.2179C141.401 91.192 141.311 91.1649 141.223 91.1367C140.942 91.0451 141.161 90.7067 141.11 90.5937C140.798 89.9095 140.166 90.7857 140.07 90.7931C137.898 91.0087 136.369 89.9794 134.164 90.125C134.04 90.1344 133.011 91.0254 132.715 90.1187C132.7 90.059 132.394 89.1311 131.974 89.688C131.946 89.7227 132.14 90.2053 131.711 90.1054C131.274 90.0046 130.545 90.2192 130.003 89.6455C129.836 89.4653 129.5 88.5332 128.843 89.1557C128.799 89.1996 127.723 90.6603 127.549 89.5301C127.52 89.3439 127.738 88.203 126.978 88.6998C126.834 88.7965 127.036 89.0854 126.67 89.1984C126.118 89.374 125.467 88.9692 124.758 89.3905C124.641 89.4665 124.047 90.1772 123.762 89.5329C123.718 89.4321 123.88 89.0638 123.695 88.9938C123.29 88.8419 122.851 88.7809 122.525 88.7479C121.884 88.6794 121.289 88.6014 120.736 88.3619C120.389 88.209 120.677 87.6225 120.328 87.3924C119.99 87.1646 119.276 86.8694 118.848 87.0785C118.415 87.2869 118.642 88.3474 118.053 88.3145C115.507 88.169 113.259 87.0787 110.904 86.4936C110.555 86.4067 110.771 86.8174 110.253 86.715C108.334 86.3334 105.023 86.003 103.545 84.9714C102.351 84.1406 104.072 83.977 103.117 83.5563C102.652 83.3547 101.945 84.4135 101.824 84.4307C100.749 84.5984 100.084 84.0972 99.214 84.0352C99.1245 84.0286 99.0329 84.0258 98.9387 84.0278C98.7151 84.0327 98.8719 84.5264 98.682 84.5254C98.0324 84.526 97.3804 84.2316 96.7535 84.1878C96.4729 84.1692 96.4759 84.532 96.2223 84.4701C95.6138 84.3256 95.0834 84.0992 94.5281 83.6779C94.4779 83.6395 94.9117 83.2514 94.4579 83.1682C93.7191 83.0337 92.856 82.5628 91.9463 82.7564C91.6783 82.8154 91.526 83.6231 91.0784 82.9689C90.9834 82.8316 91.3047 81.8886 90.5215 82.6126C90.3924 82.7341 89.1094 83.6638 88.7288 82.8326C88.6296 82.6144 88.438 81.7539 88.1128 81.8169C88.0676 81.8284 88.1443 82.2941 87.8845 82.2849C87.3967 82.2639 86.9086 82.1838 86.4152 82.1029C85.9172 82.0175 85.4331 81.922 84.9585 81.8604C84.685 81.8252 84.959 82.3732 84.553 82.305C83.4322 82.115 82.2575 81.6116 81.426 81.204C81.1191 81.0526 81.4541 80.7608 81.4429 80.7143C81.2608 79.9573 80.7786 80.7553 80.6429 80.7695C79.8016 80.8469 79.3694 80.2868 78.6828 80.2337C78.4953 80.2189 78.5223 80.6686 78.4775 80.6972C78.0263 80.9758 78.4764 80.2873 78.2612 80.15C77.6855 79.7817 76.9854 79.6709 76.3451 79.6307C76.3065 79.6275 76.268 79.6245 76.2295 79.6214C75.9175 79.597 76.1925 80.1418 75.9132 80.1139C74.2824 79.9559 72.7896 79.6719 71.3852 79.2187C71.1218 79.1324 71.3394 78.7723 71.2938 78.6781C70.9781 78.0189 70.3058 78.7848 70.1663 78.8499C69.5318 79.1461 69.3376 78.7846 68.8051 78.7966C66.2133 78.8571 63.0415 78.4894 60.5647 78.3364C60.5627 78.3362 60.5608 78.3361 60.5588 78.336C57.2192 78.1304 54.6276 77.7526 51.4555 77.8585C51.2541 77.8648 51.4591 78.3755 51.2859 78.3875C49.0483 78.5206 46.8388 78.3445 44.626 78.5461C44.4438 78.5618 44.7197 79.04 44.426 79.0817C43.8275 79.1705 43.0748 79.1666 42.4682 79.0335C42.1712 78.9695 42.5509 78.5394 42.2523 78.4836C41.5659 78.3527 40.8165 78.3503 40.1288 78.464C39.8321 78.5138 40.3099 78.9851 39.9208 79.0116C37.4543 79.1939 34.6842 79.5051 33.1551 79.3443C33.0615 79.3572 32.9681 79.3689 32.8747 79.3794C32.6242 79.4074 32.1535 78.4966 31.7365 78.8025C31.7696 79.0827 31.8516 79.4013 31.9084 79.6953C27.1249 80.9966 23.0364 80.4656 20.0928 81.2124C19.9736 81.2418 20.3108 81.7042 20.089 81.7625C19.9642 81.796 19.8426 81.8325 19.7272 81.8703C18.1881 82.3681 16.7231 82.9427 15.0059 83.0693C14.8166 83.0846 14.5789 82.1693 14.1189 82.495C14.0384 82.5522 13.3238 82.9619 13.2031 83.23C13.1881 83.269 13.4856 83.6229 13.2488 83.7303C11.87 84.3482 10.3916 84.8736 8.93843 85.266C8.7025 85.3293 8.73374 84.7974 8.56271 84.8396C7.3503 85.1424 6.35254 86.0591 5.1737 86.2545C4.37993 86.3898 4.2112 85.5533 3.43756 85.0944C3.32891 85.0285 2.90679 85.275 2.63467 84.9018C1.94288 83.9647 1.46881 82.7557 0.70927 81.7711C0.543719 81.5578 0.0643615 82.2202 0.0855306 81.4323C0.0881584 81.3774 0.441814 80.8939 0.446846 80.6342C0.448254 80.4549 0.0506482 80.1489 0.116605 79.8796C0.185467 79.6091 0.577767 79.8305 0.742643 79.4677C0.907442 79.1034 0.512365 78.7117 1.05246 78.3297ZM159.43 89.0273C158.967 88.5824 158.912 90.228 159.407 89.8299C159.431 89.8087 159.454 89.0491 159.43 89.0273ZM213.377 76.6805C212.48 76.4376 212.801 77.535 213.463 77.7381C214.116 77.9482 213.645 76.7576 213.377 76.6805ZM218.154 72.5931C217.255 72.6114 218.707 74.441 218.948 73.6103C218.963 73.5627 218.206 72.5922 218.154 72.5931ZM5.02571 83.9133C5.01004 83.8965 4.68388 84.0519 4.68823 84.0747C4.777 84.6225 5.41852 84.3167 5.02571 83.9133ZM222.526 68.285C222.159 68.1716 221.894 68.8466 222.349 68.9865C222.715 69.0991 222.982 68.4254 222.526 68.285ZM135.59 86.0102C135.586 85.985 135.322 85.9318 135.312 86.07C135.277 86.5153 135.663 86.4339 135.59 86.0102ZM230.695 61.6467C229.461 62.7554 227.564 61.7666 228.877 60.9132C229.117 60.7463 228.832 61.7856 229.222 61.6668C229.963 61.4185 229.405 60.2619 230.333 60.1845C230.518 60.1593 230.782 61.5796 230.695 61.6506C230.695 61.6493 230.695 61.648 230.695 61.6467ZM159.148 87.0539C159.139 87.0323 158.77 87.0148 158.762 87.0364C158.567 87.5603 159.309 87.5959 159.148 87.0539ZM120.437 82.9351C120.43 82.8876 119.604 82.6888 119.571 82.7251C118.974 83.4821 120.649 83.8879 120.437 82.9351ZM183.621 84.672C183.932 84.0912 184.372 83.9544 184.796 84.5496C184.404 84.5829 184.019 84.6419 183.621 84.672Z" fill="#2BB87B"/>
</svg>
